<svg xmlns="http://www.w3.org/2000/svg" xmlns:xlink="http://www.w3.org/1999/xlink" width="2000" zoomAndPan="magnify" viewBox="0 0 1500 1499.999933" height="2000" preserveAspectRatio="xMidYMid meet" version="1.0"><defs><filter x="0%" y="0%" width="100%" height="100%" id="71f99c2df7"><feColorMatrix values="0 0 0 0 1 0 0 0 0 1 0 0 0 0 1 0 0 0 1 0" color-interpolation-filters="sRGB"/></filter><g/><clipPath id="d55c60e417"><path d="M 276.003906 366.597656 L 1224.003906 366.597656 L 1224.003906 840.597656 L 276.003906 840.597656 Z M 276.003906 366.597656 " clip-rule="nonzero"/></clipPath><clipPath id="a1baa95b14"><path d="M 0.238281 0.597656 L 948 0.597656 L 948 474.585938 L 0.238281 474.585938 Z M 0.238281 0.597656 " clip-rule="nonzero"/></clipPath><clipPath id="d11776be0a"><rect x="0" width="949" y="0" height="475"/></clipPath><mask id="17625fd24e"><g filter="url(#71f99c2df7)"><rect x="-150" width="1800" fill="#000000" y="-149.999993" height="1799.99992" fill-opacity="0.5"/></g></mask><clipPath id="5a5e9b8530"><path d="M 0.753906 0.476562 L 804 0.476562 L 804 409.59375 L 0.753906 409.59375 Z M 0.753906 0.476562 " clip-rule="nonzero"/></clipPath><clipPath id="5e01f1d165"><path d="M 803.246094 409.59375 C 803.246094 186.753906 620.554688 0.476562 402 0.476562 C 183.445312 0.476562 0.753906 186.753906 0.753906 409.59375 Z M 803.246094 409.59375 " clip-rule="nonzero"/></clipPath><clipPath id="06df5d31cd"><path d="M 0.753906 0.476562 L 803.28125 0.476562 L 803.28125 409.59375 L 0.753906 409.59375 Z M 0.753906 0.476562 " clip-rule="nonzero"/></clipPath><clipPath id="ffc1411f42"><path d="M 803.246094 409.59375 C 803.246094 186.753906 620.554688 0.476562 402 0.476562 C 183.445312 0.476562 0.753906 186.753906 0.753906 409.59375 Z M 803.246094 409.59375 " clip-rule="nonzero"/></clipPath><clipPath id="5728570a62"><rect x="0" width="804" y="0" height="410"/></clipPath><clipPath id="943faf3558"><rect x="0" width="805" y="0" height="410"/></clipPath><mask id="5287ec2efb"><g filter="url(#71f99c2df7)"><rect x="-150" width="1800" fill="#000000" y="-149.999993" height="1799.99992" fill-opacity="0.38"/></g></mask><clipPath id="ccc4d80497"><path d="M 0.253906 0.28125 L 874 0.28125 L 874 445.59375 L 0.253906 445.59375 Z M 0.253906 0.28125 " clip-rule="nonzero"/></clipPath><clipPath id="afa24f1f80"><path d="M 873.746094 445.59375 C 873.746094 203.039062 674.890625 0.28125 437 0.28125 C 199.109375 0.28125 0.253906 203.039062 0.253906 445.59375 Z M 873.746094 445.59375 " clip-rule="nonzero"/></clipPath><clipPath id="b8d08776ea"><path d="M 0.253906 0.28125 L 873.800781 0.28125 L 873.800781 445.59375 L 0.253906 445.59375 Z M 0.253906 0.28125 " clip-rule="nonzero"/></clipPath><clipPath id="fee406c0ce"><path d="M 873.746094 445.59375 C 873.746094 203.039062 674.890625 0.28125 437 0.28125 C 199.109375 0.28125 0.253906 203.039062 0.253906 445.59375 Z M 873.746094 445.59375 " clip-rule="nonzero"/></clipPath><clipPath id="6fabe9f9ed"><rect x="0" width="874" y="0" height="446"/></clipPath><clipPath id="8709045816"><rect x="0" width="876" y="0" height="446"/></clipPath><clipPath id="4c45161fce"><path d="M 739 531.671875 L 761 531.671875 L 761 606 L 739 606 Z M 739 531.671875 " clip-rule="nonzero"/></clipPath><clipPath id="d8c0c31c85"><path d="M 487.949219 821 L 1012.199219 821 L 1012.199219 842 L 487.949219 842 Z M 487.949219 821 " clip-rule="nonzero"/></clipPath><clipPath id="d49d2c73ff"><path d="M 669 912 L 830 912 L 830 933.671875 L 669 933.671875 Z M 669 912 " clip-rule="nonzero"/></clipPath><clipPath id="dab49fe9ad"><path d="M 351 1052.210938 L 398 1052.210938 L 398 1064 L 351 1064 Z M 351 1052.210938 " clip-rule="nonzero"/></clipPath><clipPath id="b6587684ab"><path d="M 328.679688 1053 L 350 1053 L 350 1063 L 328.679688 1063 Z M 328.679688 1053 " clip-rule="nonzero"/></clipPath><clipPath id="ce78c10878"><path d="M 1102 1052.210938 L 1149 1052.210938 L 1149 1064 L 1102 1064 Z M 1102 1052.210938 " clip-rule="nonzero"/></clipPath><clipPath id="354cf8800c"><path d="M 1150 1053 L 1171.679688 1053 L 1171.679688 1063 L 1150 1063 Z M 1150 1053 " clip-rule="nonzero"/></clipPath><clipPath id="89d38adf66"><rect x="0" width="604" y="0" height="61"/></clipPath></defs><g clip-path="url(#d55c60e417)"><g transform="matrix(1, 0, 0, 1, 276, 366)"><g clip-path="url(#d11776be0a)"><g clip-path="url(#a1baa95b14)"><path fill="#ffee78" d="M 947.585938 474.585938 C 947.585938 212.773438 735.414062 0.597656 473.597656 0.597656 C 211.785156 0.597656 0.410156 212.773438 0.410156 474.585938 Z M 947.585938 474.585938 " fill-opacity="1" fill-rule="nonzero"/></g></g></g></g><g fill="#ffffff" fill-opacity="1"><g transform="translate(196.0015, 1030.546403)"><g><path d="M 3.984375 0 L 3.984375 -71.65625 L 32.078125 -71.65625 C 36.628906 -71.65625 41.023438 -71.203125 45.265625 -70.296875 C 49.515625 -69.390625 53.5 -67.570312 57.21875 -64.84375 C 62.070312 -61.195312 65.5625 -56.945312 67.6875 -52.09375 C 69.726562 -47.164062 70.75 -41.742188 70.75 -35.828125 C 70.75 -29.910156 69.648438 -24.601562 67.453125 -19.90625 C 65.179688 -15.207031 62 -11.265625 57.90625 -8.078125 C 53.800781 -4.660156 49.398438 -2.460938 44.703125 -1.484375 C 39.921875 -0.492188 34.953125 0 29.796875 0 Z M 27.1875 -19.5625 L 30.71875 -19.5625 C 36.175781 -19.5625 40.382812 -20.851562 43.34375 -23.4375 C 46.300781 -25.9375 47.78125 -30.066406 47.78125 -35.828125 C 47.78125 -41.742188 46.257812 -45.953125 43.21875 -48.453125 C 40.1875 -50.878906 35.828125 -52.09375 30.140625 -52.09375 L 27.1875 -52.09375 Z M 27.1875 -19.5625 "/></g></g></g><g fill="#ffffff" fill-opacity="1"><g transform="translate(276.19045, 1030.546403)"><g><path d="M 3.984375 -71.65625 L 27.1875 -71.65625 L 27.1875 0 L 3.984375 0 Z M 3.984375 -71.65625 "/></g></g></g><g fill="#ffffff" fill-opacity="1"><g transform="translate(314.977266, 1030.546403)"><g><path d="M 81.5625 -65.515625 L 41.859375 5.796875 L 39.921875 5.796875 L 0 -65.515625 L 24.453125 -75.640625 L 41.40625 -37.078125 L 58.46875 -75.640625 Z M 81.5625 -65.515625 "/></g></g></g><g fill="#ffffff" fill-opacity="1"><g transform="translate(403.014414, 1030.546403)"><g><path d="M 3.984375 -71.65625 L 27.1875 -71.65625 L 27.1875 0 L 3.984375 0 Z M 3.984375 -71.65625 "/></g></g></g><g fill="#ffffff" fill-opacity="1"><g transform="translate(441.80123, 1030.546403)"><g><path d="M 3.984375 -74.5 L 5.578125 -74.5 L 43.5625 -42.890625 L 43.5625 -71.65625 L 66.765625 -71.65625 L 66.765625 3.40625 L 64.953125 3.40625 L 27.1875 -27.640625 L 27.1875 0 L 3.984375 0 Z M 3.984375 -74.5 "/></g></g></g><g fill="#ffffff" fill-opacity="1"><g transform="translate(520.284256, 1030.546403)"><g><path d="M 50.15625 -71.65625 L 49.484375 -52.09375 L 26.734375 -52.09375 L 26.734375 -43 L 45.046875 -43 L 44.359375 -27.296875 L 26.734375 -27.296875 L 26.734375 -19.5625 L 50.15625 -19.5625 L 49.484375 0 L 3.53125 0 L 3.53125 -71.65625 Z M 50.15625 -71.65625 "/></g></g></g><g fill="#ffffff" fill-opacity="1"><g transform="translate(614.919219, 1030.546403)"><g><path d="M 81.5625 -65.515625 L 41.859375 5.796875 L 39.921875 5.796875 L 0 -65.515625 L 24.453125 -75.640625 L 41.40625 -37.078125 L 58.46875 -75.640625 Z M 81.5625 -65.515625 "/></g></g></g><g fill="#ffffff" fill-opacity="1"><g transform="translate(702.956367, 1030.546403)"><g><path d="M 3.984375 -71.65625 L 27.1875 -71.65625 L 27.1875 0 L 3.984375 0 Z M 3.984375 -71.65625 "/></g></g></g><g fill="#ffffff" fill-opacity="1"><g transform="translate(741.743183, 1030.546403)"><g><path d="M 50.15625 -71.65625 L 49.484375 -52.09375 L 26.734375 -52.09375 L 26.734375 -43 L 45.046875 -43 L 44.359375 -27.296875 L 26.734375 -27.296875 L 26.734375 -19.5625 L 50.15625 -19.5625 L 49.484375 0 L 3.53125 0 L 3.53125 -71.65625 Z M 50.15625 -71.65625 "/></g></g></g><g fill="#ffffff" fill-opacity="1"><g transform="translate(801.45854, 1030.546403)"><g><path d="M -1.484375 -66.890625 L 24.34375 -74.96875 L 33.78125 -45.046875 L 47.65625 -63.8125 L 62 -45.046875 L 70.984375 -74.96875 L 96.453125 -66.890625 L 68.703125 4.890625 L 67.796875 4.890625 L 47.4375 -25.359375 L 27.1875 4.890625 L 26.28125 4.890625 Z M -1.484375 -66.890625 "/></g></g></g><g fill="#ffffff" fill-opacity="1"><g transform="translate(903.485997, 1030.546403)"><g/></g></g><g fill="#ffffff" fill-opacity="1"><g transform="translate(938.40558, 1030.546403)"><g><path d="M 43.5625 0 L 20.015625 0 L 20.015625 -52.09375 L 0 -52.09375 L 0.6875 -71.65625 L 63.59375 -71.65625 L 63.015625 -52.09375 L 43.5625 -52.09375 Z M 43.5625 0 "/></g></g></g><g fill="#ffffff" fill-opacity="1"><g transform="translate(1008.471431, 1030.546403)"><g><path d="M 11.71875 -10.46875 C 8.300781 -14.175781 5.875 -18.082031 4.4375 -22.1875 C 3 -26.195312 2.28125 -30.707031 2.28125 -35.71875 C 2.28125 -40.945312 3.226562 -45.800781 5.125 -50.28125 C 7.019531 -54.75 9.632812 -58.65625 12.96875 -62 C 16.300781 -65.332031 20.242188 -67.945312 24.796875 -69.84375 C 29.273438 -71.738281 34.128906 -72.6875 39.359375 -72.6875 C 44.359375 -72.6875 48.984375 -71.96875 53.234375 -70.53125 C 57.484375 -69.007812 61.3125 -66.65625 64.71875 -63.46875 C 68.363281 -60.0625 71.25 -55.96875 73.375 -51.1875 C 75.414062 -46.332031 76.4375 -41.175781 76.4375 -35.71875 C 76.4375 -30.707031 75.71875 -26.195312 74.28125 -22.1875 C 72.84375 -18.082031 70.414062 -14.175781 67 -10.46875 C 63.351562 -6.59375 59.144531 -3.707031 54.375 -1.8125 C 49.519531 0.0820312 44.476562 1.03125 39.25 1.03125 C 33.9375 1.03125 28.96875 0.0820312 24.34375 -1.8125 C 19.644531 -3.632812 15.4375 -6.519531 11.71875 -10.46875 Z M 23.78125 -35.71875 C 23.78125 -33.445312 24.15625 -31.25 24.90625 -29.125 C 25.59375 -26.925781 26.617188 -25.03125 27.984375 -23.4375 C 29.273438 -21.769531 30.90625 -20.441406 32.875 -19.453125 C 34.769531 -18.390625 36.929688 -17.859375 39.359375 -17.859375 C 41.785156 -17.859375 43.984375 -18.390625 45.953125 -19.453125 C 47.847656 -20.441406 49.476562 -21.769531 50.84375 -23.4375 C 52.132812 -25.03125 53.160156 -26.925781 53.921875 -29.125 C 54.597656 -31.25 54.9375 -33.445312 54.9375 -35.71875 C 54.9375 -37.988281 54.597656 -40.222656 53.921875 -42.421875 C 53.160156 -44.546875 52.132812 -46.484375 50.84375 -48.234375 C 49.476562 -49.898438 47.847656 -51.265625 45.953125 -52.328125 C 43.984375 -53.390625 41.785156 -53.921875 39.359375 -53.921875 C 36.859375 -53.921875 34.660156 -53.425781 32.765625 -52.4375 C 30.785156 -51.375 29.15625 -50.007812 27.875 -48.34375 C 26.507812 -46.601562 25.484375 -44.628906 24.796875 -42.421875 C 24.117188 -40.222656 23.78125 -37.988281 23.78125 -35.71875 Z M 23.78125 -35.71875 "/></g></g></g><g fill="#ffffff" fill-opacity="1"><g transform="translate(1093.665089, 1030.546403)"><g><path d="M 26.84375 -71.65625 L 26.84375 -30.828125 C 26.84375 -29.609375 26.921875 -28.242188 27.078125 -26.734375 C 27.148438 -25.140625 27.414062 -23.695312 27.875 -22.40625 C 28.320312 -21.113281 29.039062 -20.015625 30.03125 -19.109375 C 30.9375 -18.203125 32.222656 -17.75 33.890625 -17.75 C 35.640625 -17.75 37.007812 -18.203125 38 -19.109375 C 38.90625 -19.941406 39.585938 -21.039062 40.046875 -22.40625 C 40.492188 -23.695312 40.796875 -25.101562 40.953125 -26.625 C 41.023438 -28.132812 41.0625 -29.535156 41.0625 -30.828125 L 41.0625 -71.65625 L 64.265625 -71.65625 L 64.265625 -29 C 64.265625 -18.539062 61.914062 -10.769531 57.21875 -5.6875 C 52.4375 -0.601562 44.660156 1.894531 33.890625 1.8125 C 23.128906 1.8125 15.394531 -0.722656 10.6875 -5.796875 C 5.988281 -10.878906 3.640625 -18.613281 3.640625 -29 L 3.640625 -71.65625 Z M 26.84375 -71.65625 "/></g></g></g><g fill="#ffffff" fill-opacity="1"><g transform="translate(1168.053144, 1030.546403)"><g><path d="M 34.8125 -71.65625 C 38.601562 -71.65625 42.203125 -71.238281 45.609375 -70.40625 C 49.023438 -69.5 52.019531 -68.132812 54.59375 -66.3125 C 57.175781 -64.414062 59.226562 -61.988281 60.75 -59.03125 C 62.1875 -56 62.867188 -52.320312 62.796875 -48 C 62.710938 -44.132812 62.101562 -40.6875 60.96875 -37.65625 C 59.757812 -34.613281 57.5625 -31.882812 54.375 -29.46875 L 53.125 -28.546875 L 64.84375 -7.84375 L 43.796875 2.28125 L 29.6875 -25.359375 L 28.546875 -25.25 L 28.4375 0 L 5.234375 0 L 5.234375 -71.65625 Z M 28.4375 -52.4375 L 28.4375 -39.125 L 29.796875 -39.125 C 30.859375 -39.125 31.957031 -39.164062 33.09375 -39.25 C 34.15625 -39.320312 35.179688 -39.546875 36.171875 -39.921875 C 37.304688 -40.304688 38.289062 -41.03125 39.125 -42.09375 C 39.957031 -43.070312 40.375 -44.394531 40.375 -46.0625 C 40.457031 -47.738281 40.117188 -49.03125 39.359375 -49.9375 C 38.523438 -50.769531 37.578125 -51.375 36.515625 -51.75 C 35.753906 -52.0625 34.957031 -52.253906 34.125 -52.328125 C 33.289062 -52.398438 32.457031 -52.4375 31.625 -52.4375 Z M 28.4375 -52.4375 "/></g></g></g><g fill="#ffffff" fill-opacity="1"><g transform="translate(1239.825171, 1030.546403)"><g><path d="M 33.21875 -73.03125 C 36.175781 -73.03125 39.207031 -72.648438 42.3125 -71.890625 C 45.34375 -71.128906 48.1875 -69.992188 50.84375 -68.484375 C 53.5 -66.960938 55.8125 -65.066406 57.78125 -62.796875 C 59.757812 -60.515625 61.164062 -57.820312 62 -54.71875 L 47.09375 -45.265625 C 45.800781 -47.921875 43.867188 -50.007812 41.296875 -51.53125 C 38.710938 -53.039062 35.941406 -53.875 32.984375 -54.03125 L 30.9375 -54.03125 C 30.257812 -54.03125 29.539062 -53.992188 28.78125 -53.921875 C 27.945312 -53.765625 27.1875 -53.535156 26.5 -53.234375 C 25.738281 -52.929688 25.132812 -52.515625 24.6875 -51.984375 C 24.226562 -51.453125 24 -50.734375 24 -49.828125 C 24 -48.535156 24.566406 -47.585938 25.703125 -46.984375 C 26.765625 -46.296875 27.941406 -45.765625 29.234375 -45.390625 L 45.5 -40.84375 C 48.15625 -40.082031 50.503906 -39.207031 52.546875 -38.21875 C 54.597656 -37.15625 56.34375 -35.90625 57.78125 -34.46875 C 59.226562 -32.945312 60.328125 -31.164062 61.078125 -29.125 C 61.835938 -27 62.21875 -24.492188 62.21875 -21.609375 C 62.21875 -17.742188 61.382812 -14.332031 59.71875 -11.375 C 57.976562 -8.414062 55.851562 -5.988281 53.34375 -4.09375 C 50.539062 -2.050781 47.472656 -0.648438 44.140625 0.109375 C 40.796875 0.941406 37.269531 1.359375 33.5625 1.359375 C 27.039062 1.359375 21.007812 -0.00390625 15.46875 -2.734375 C 9.851562 -5.390625 5.34375 -9.5625 1.9375 -15.25 L 16.71875 -26.5 C 17.550781 -24.988281 18.613281 -23.660156 19.90625 -22.515625 C 21.113281 -21.378906 22.515625 -20.472656 24.109375 -19.796875 C 25.628906 -19.035156 27.257812 -18.46875 29 -18.09375 C 30.675781 -17.707031 32.347656 -17.515625 34.015625 -17.515625 C 34.773438 -17.515625 35.570312 -17.59375 36.40625 -17.75 C 37.15625 -17.820312 37.875 -18.046875 38.5625 -18.421875 C 39.238281 -18.722656 39.804688 -19.140625 40.265625 -19.671875 C 40.722656 -20.203125 40.953125 -20.882812 40.953125 -21.71875 C 40.878906 -22.707031 40.5 -23.503906 39.8125 -24.109375 C 39.050781 -24.640625 37.988281 -25.132812 36.625 -25.59375 L 20.015625 -30.828125 C 17.671875 -31.585938 15.507812 -32.535156 13.53125 -33.671875 C 11.5625 -34.734375 9.894531 -36.0625 8.53125 -37.65625 C 7.09375 -39.164062 5.992188 -40.945312 5.234375 -43 C 4.398438 -45.039062 3.984375 -47.351562 3.984375 -49.9375 C 4.128906 -53.957031 5.078125 -57.445312 6.828125 -60.40625 C 8.492188 -63.28125 10.691406 -65.664062 13.421875 -67.5625 C 16.148438 -69.457031 19.257812 -70.863281 22.75 -71.78125 C 26.164062 -72.613281 29.65625 -73.03125 33.21875 -73.03125 Z M 33.21875 -73.03125 "/></g></g></g><g mask="url(#17625fd24e)"><g transform="matrix(1, 0, 0, 1, 348, 431)"><g clip-path="url(#943faf3558)"><g clip-path="url(#5a5e9b8530)"><g clip-path="url(#5e01f1d165)"><g transform="matrix(1, 0, 0, 1, 0, 0.000000000000113687)"><g clip-path="url(#5728570a62)"><g clip-path="url(#06df5d31cd)"><g clip-path="url(#ffc1411f42)"><path fill="#ebba61" d="M 0.753906 0.476562 L 803.003906 0.476562 L 803.003906 409.59375 L 0.753906 409.59375 Z M 0.753906 0.476562 " fill-opacity="1" fill-rule="nonzero"/></g></g></g></g></g></g></g></g></g><g mask="url(#5287ec2efb)"><g transform="matrix(1, 0, 0, 1, 313, 395)"><g clip-path="url(#8709045816)"><g clip-path="url(#ccc4d80497)"><g clip-path="url(#afa24f1f80)"><g transform="matrix(1, 0, 0, 1, 0, 0.000000000000113687)"><g clip-path="url(#6fabe9f9ed)"><g clip-path="url(#b8d08776ea)"><g clip-path="url(#fee406c0ce)"><path fill="#ebba61" d="M 0.253906 0.28125 L 873.476562 0.28125 L 873.476562 445.59375 L 0.253906 445.59375 Z M 0.253906 0.28125 " fill-opacity="1" fill-rule="nonzero"/></g></g></g></g></g></g></g></g></g><g clip-path="url(#4c45161fce)"><path fill="#ffffff" d="M 749.140625 531.765625 L 749.824219 531.765625 C 755.433594 531.734375 760.003906 536.253906 760.03125 541.863281 L 760.3125 595.605469 C 760.34375 601.210938 755.820312 605.78125 750.214844 605.8125 L 749.527344 605.8125 C 743.917969 605.84375 739.347656 601.320312 739.320312 595.714844 L 739.039062 541.972656 C 739.007812 536.367188 743.53125 531.796875 749.140625 531.765625 Z M 749.140625 531.765625 " fill-opacity="1" fill-rule="nonzero"/></g><path fill="#ffffff" d="M 862.386719 559.898438 L 862.871094 560.152344 C 868.015625 562.851562 869.996094 569.210938 867.292969 574.355469 L 842.804688 621.003906 C 840.101562 626.148438 833.746094 628.128906 828.601562 625.429688 L 828.117188 625.175781 C 822.972656 622.472656 820.992188 616.113281 823.691406 610.972656 L 848.183594 564.320312 C 850.886719 559.175781 857.246094 557.195312 862.386719 559.898438 Z M 862.386719 559.898438 " fill-opacity="1" fill-rule="nonzero"/><path fill="#ffffff" d="M 636.957031 560.464844 L 637.402344 560.234375 C 642.460938 557.613281 648.683594 559.589844 651.304688 564.644531 L 675.761719 611.832031 C 678.382812 616.886719 676.40625 623.113281 671.351562 625.730469 L 670.90625 625.960938 C 665.847656 628.582031 659.625 626.609375 657.003906 621.550781 L 632.546875 574.367188 C 629.925781 569.308594 631.898438 563.085938 636.957031 560.464844 Z M 636.957031 560.464844 " fill-opacity="1" fill-rule="nonzero"/><path fill="#ffffff" d="M 749.953125 628.339844 C 836.601562 628.269531 903.007812 700.992188 899.785156 786.015625 C 899.585938 791.535156 895.222656 795.992188 889.722656 796.308594 L 889.035156 796.351562 C 883.566406 796.671875 878.871094 792.503906 878.550781 787.042969 C 878.546875 786.953125 878.542969 786.859375 878.539062 786.773438 C 878.21875 776.847656 878.90625 767.835938 877.328125 759.261719 C 869.125 714.898438 845.3125 682.726562 805.890625 662.757812 C 788.3125 653.851562 769.671875 649.417969 749.976562 649.449219 C 730.265625 649.464844 711.632812 653.9375 694.085938 662.871094 C 654.6875 682.917969 630.9375 715.132812 622.824219 759.511719 C 621.246094 768.085938 621.953125 777.097656 621.65625 787.019531 C 621.503906 792.488281 616.9375 796.792969 611.457031 796.636719 C 611.363281 796.636719 611.277344 796.632812 611.183594 796.628906 L 610.496094 796.582031 C 604.996094 796.277344 600.628906 791.832031 600.410156 786.316406 C 597.03125 701.289062 663.28125 628.429688 749.953125 628.339844 Z M 749.953125 628.339844 " fill-opacity="1" fill-rule="nonzero"/><path fill="#ffffff" d="M 563.421875 633.648438 L 606.398438 664.757812 C 611.148438 668.195312 612.207031 674.828125 608.773438 679.574219 L 608.449219 680.019531 C 605.015625 684.769531 598.378906 685.832031 593.632812 682.394531 L 550.660156 651.285156 C 545.910156 647.847656 544.847656 641.214844 548.285156 636.46875 L 548.605469 636.023438 C 552.042969 631.273438 558.675781 630.214844 563.421875 633.648438 Z M 563.421875 633.648438 " fill-opacity="1" fill-rule="nonzero"/><path fill="#ffffff" d="M 892.910156 665.242188 L 936.414062 634.554688 C 941.085938 631.257812 947.550781 632.375 950.847656 637.050781 L 951.140625 637.460938 C 954.4375 642.136719 953.320312 648.601562 948.644531 651.898438 L 905.140625 682.585938 C 900.46875 685.886719 894.003906 684.765625 890.707031 680.089844 L 890.414062 679.679688 C 887.117188 675.003906 888.234375 668.542969 892.910156 665.242188 Z M 892.910156 665.242188 " fill-opacity="1" fill-rule="nonzero"/><path fill="#ffffff" d="M 930.847656 743.714844 L 982.136719 738.59375 C 987.792969 738.03125 992.835938 742.15625 993.402344 747.8125 L 993.472656 748.542969 C 994.039062 754.195312 989.914062 759.238281 984.253906 759.804688 L 932.964844 764.925781 C 927.308594 765.488281 922.265625 761.363281 921.703125 755.707031 L 921.628906 754.976562 C 921.066406 749.320312 925.191406 744.28125 930.847656 743.714844 Z M 930.847656 743.714844 " fill-opacity="1" fill-rule="nonzero"/><path fill="#ffffff" d="M 519.257812 738.929688 L 570.035156 743.640625 C 575.707031 744.167969 579.878906 749.191406 579.351562 754.863281 L 579.273438 755.683594 C 578.746094 761.351562 573.722656 765.523438 568.054688 764.996094 L 517.277344 760.285156 C 511.605469 759.757812 507.433594 754.734375 507.960938 749.066406 L 508.035156 748.246094 C 508.558594 742.574219 513.582031 738.40625 519.257812 738.929688 Z M 519.257812 738.929688 " fill-opacity="1" fill-rule="nonzero"/><g clip-path="url(#d8c0c31c85)"><path fill="#ffffff" d="M 497.988281 821.1875 L 1002.007812 821.1875 C 1007.550781 821.1875 1012.046875 825.679688 1012.046875 831.226562 L 1012.046875 831.957031 C 1012.046875 837.5 1007.550781 841.996094 1002.007812 841.996094 L 497.988281 841.996094 C 492.441406 841.996094 487.949219 837.5 487.949219 831.957031 L 487.949219 831.226562 C 487.949219 825.683594 492.441406 821.1875 497.988281 821.1875 Z M 497.988281 821.1875 " fill-opacity="1" fill-rule="nonzero"/></g><path fill="#ffffff" d="M 592.460938 867.246094 L 908.273438 866.695312 C 914.046875 866.6875 918.730469 871.359375 918.742188 877.128906 L 918.742188 877.3125 C 918.753906 883.085938 914.082031 887.769531 908.3125 887.78125 L 592.496094 888.332031 C 586.722656 888.339844 582.039062 883.667969 582.027344 877.898438 L 582.027344 877.714844 C 582.019531 871.941406 586.6875 867.253906 592.460938 867.246094 Z M 592.460938 867.246094 " fill-opacity="1" fill-rule="nonzero"/><g clip-path="url(#d49d2c73ff)"><path fill="#ffffff" d="M 679.992188 912.859375 L 818.894531 913.101562 C 824.503906 913.113281 829.039062 917.667969 829.03125 923.273438 L 829.03125 923.683594 C 829.019531 929.292969 824.464844 933.832031 818.859375 933.820312 L 679.957031 933.578125 C 674.351562 933.566406 669.8125 929.011719 669.824219 923.40625 L 669.824219 922.996094 C 669.832031 917.386719 674.386719 912.851562 679.992188 912.859375 Z M 679.992188 912.859375 " fill-opacity="1" fill-rule="nonzero"/></g><g clip-path="url(#dab49fe9ad)"><path fill="#ffffff" d="M 394.253906 1055.449219 C 393.429688 1055.449219 392.703125 1055.789062 392.164062 1056.34375 C 392.113281 1056.277344 392.0625 1056.226562 392.011719 1056.15625 C 391.828125 1055.921875 391.625 1055.703125 391.4375 1055.484375 C 391.035156 1055.046875 390.613281 1054.609375 390.160156 1054.1875 C 389.71875 1053.765625 389.25 1053.378906 388.777344 1053.007812 L 388.691406 1052.9375 C 387.5625 1053.597656 386.382812 1054.1875 385.171875 1054.691406 C 385.085938 1054.726562 385.019531 1054.757812 384.933594 1054.792969 L 384.699219 1054.878906 L 384.226562 1055.0625 C 384.226562 1055.0625 384.074219 1055.128906 383.992188 1055.148438 L 383.753906 1055.230469 L 383.265625 1055.398438 C 382.945312 1055.5 382.609375 1055.601562 382.289062 1055.703125 L 381.800781 1055.835938 C 381.632812 1055.886719 381.460938 1055.921875 381.3125 1055.972656 C 378.664062 1056.628906 375.917969 1056.917969 373.1875 1056.816406 C 370.472656 1056.714844 367.761719 1056.277344 365.164062 1055.519531 C 362.855469 1054.84375 360.617188 1053.949219 358.492188 1052.855469 C 356.539062 1053.96875 354.683594 1055.28125 352.964844 1056.730469 C 352.339844 1057.253906 351.75 1057.792969 351.160156 1058.347656 C 351.75 1058.90625 352.339844 1059.445312 352.964844 1059.964844 C 354.683594 1061.417969 356.539062 1062.730469 358.492188 1063.84375 C 360.617188 1062.746094 362.855469 1061.835938 365.164062 1061.179688 C 367.761719 1060.421875 370.457031 1059.984375 373.1875 1059.882812 C 375.902344 1059.78125 378.648438 1060.066406 381.3125 1060.726562 C 381.480469 1060.757812 381.648438 1060.808594 381.800781 1060.859375 L 382.289062 1060.996094 C 382.609375 1061.097656 382.945312 1061.195312 383.265625 1061.296875 L 383.753906 1061.464844 L 383.992188 1061.550781 C 383.992188 1061.550781 384.160156 1061.601562 384.226562 1061.636719 L 384.699219 1061.820312 L 384.933594 1061.90625 C 384.933594 1061.90625 385.085938 1061.972656 385.171875 1062.007812 C 386.382812 1062.511719 387.5625 1063.085938 388.691406 1063.757812 C 388.726562 1063.742188 388.742188 1063.707031 388.777344 1063.691406 C 389.25 1063.320312 389.703125 1062.933594 390.160156 1062.511719 C 390.597656 1062.089844 391.035156 1061.667969 391.4375 1061.214844 C 391.640625 1060.996094 391.84375 1060.757812 392.011719 1060.539062 C 392.0625 1060.472656 392.113281 1060.421875 392.164062 1060.355469 C 392.6875 1060.894531 393.429688 1061.246094 394.253906 1061.246094 C 395.855469 1061.246094 397.136719 1059.949219 397.136719 1058.367188 C 397.136719 1056.78125 395.839844 1055.484375 394.253906 1055.484375 Z M 394.253906 1055.449219 " fill-opacity="1" fill-rule="nonzero"/></g><g clip-path="url(#b6587684ab)"><path fill="#ffffff" d="M 348.886719 1056.917969 C 348.464844 1056.125 348.09375 1055.316406 347.789062 1054.488281 C 347.589844 1054.4375 347.386719 1054.386719 347.167969 1054.355469 C 345.566406 1054.019531 343.796875 1053.882812 341.890625 1054.019531 C 340.003906 1054.117188 338 1054.507812 335.941406 1055.128906 C 333.550781 1055.855469 331.089844 1056.949219 328.695312 1058.347656 C 331.089844 1059.746094 333.550781 1060.828125 335.941406 1061.566406 C 338 1062.191406 340.003906 1062.5625 341.890625 1062.679688 C 342.835938 1062.746094 343.746094 1062.730469 344.640625 1062.679688 C 345.078125 1062.644531 345.515625 1062.613281 345.9375 1062.546875 C 346.140625 1062.511719 346.359375 1062.496094 346.558594 1062.460938 C 346.761719 1062.425781 346.964844 1062.375 347.167969 1062.34375 C 347.386719 1062.292969 347.589844 1062.257812 347.789062 1062.207031 C 348.09375 1061.382812 348.464844 1060.574219 348.886719 1059.78125 C 349.089844 1059.394531 349.308594 1059.023438 349.542969 1058.667969 C 349.609375 1058.566406 349.679688 1058.46875 349.746094 1058.367188 C 349.679688 1058.265625 349.609375 1058.164062 349.542969 1058.0625 C 349.308594 1057.691406 349.089844 1057.320312 348.886719 1056.933594 Z M 348.886719 1056.917969 " fill-opacity="1" fill-rule="nonzero"/></g><g clip-path="url(#ce78c10878)"><path fill="#ffffff" d="M 1141.519531 1052.855469 C 1139.398438 1053.949219 1137.15625 1054.859375 1134.847656 1055.519531 C 1132.25 1056.277344 1129.554688 1056.714844 1126.824219 1056.816406 C 1124.113281 1056.917969 1121.363281 1056.628906 1118.703125 1055.972656 C 1118.535156 1055.9375 1118.363281 1055.886719 1118.214844 1055.835938 L 1117.726562 1055.703125 C 1117.40625 1055.601562 1117.066406 1055.5 1116.746094 1055.398438 L 1116.257812 1055.230469 L 1116.023438 1055.148438 C 1116.023438 1055.148438 1115.855469 1055.097656 1115.785156 1055.0625 L 1115.316406 1054.878906 L 1115.078125 1054.792969 C 1115.078125 1054.792969 1114.925781 1054.726562 1114.84375 1054.691406 C 1113.628906 1054.1875 1112.449219 1053.613281 1111.320312 1052.9375 L 1111.238281 1053.007812 C 1110.765625 1053.378906 1110.308594 1053.765625 1109.855469 1054.1875 C 1109.417969 1054.609375 1108.976562 1055.027344 1108.574219 1055.484375 C 1108.371094 1055.703125 1108.167969 1055.9375 1108 1056.15625 C 1107.949219 1056.226562 1107.898438 1056.277344 1107.847656 1056.34375 C 1107.328125 1055.804688 1106.585938 1055.449219 1105.757812 1055.449219 C 1104.15625 1055.449219 1102.878906 1056.746094 1102.878906 1058.332031 C 1102.878906 1059.917969 1104.175781 1061.214844 1105.757812 1061.214844 C 1106.585938 1061.214844 1107.308594 1060.875 1107.847656 1060.320312 C 1107.898438 1060.386719 1107.949219 1060.4375 1108 1060.507812 C 1108.1875 1060.742188 1108.386719 1060.960938 1108.574219 1061.179688 C 1108.976562 1061.617188 1109.398438 1062.054688 1109.855469 1062.476562 C 1110.292969 1062.898438 1110.765625 1063.285156 1111.238281 1063.65625 C 1111.269531 1063.675781 1111.285156 1063.707031 1111.320312 1063.726562 C 1112.449219 1063.066406 1113.628906 1062.476562 1114.84375 1061.972656 C 1114.925781 1061.9375 1114.996094 1061.90625 1115.078125 1061.871094 L 1115.316406 1061.785156 L 1115.785156 1061.601562 C 1115.785156 1061.601562 1115.9375 1061.535156 1116.023438 1061.515625 L 1116.257812 1061.433594 L 1116.746094 1061.265625 C 1117.066406 1061.164062 1117.40625 1061.0625 1117.726562 1060.960938 L 1118.214844 1060.828125 C 1118.382812 1060.777344 1118.550781 1060.742188 1118.703125 1060.691406 C 1121.347656 1060.035156 1124.09375 1059.746094 1126.824219 1059.847656 C 1129.539062 1059.949219 1132.25 1060.386719 1134.847656 1061.144531 C 1137.15625 1061.820312 1139.398438 1062.714844 1141.519531 1063.808594 C 1143.476562 1062.695312 1145.328125 1061.398438 1147.046875 1059.933594 C 1147.671875 1059.410156 1148.261719 1058.871094 1148.851562 1058.316406 C 1148.261719 1057.757812 1147.671875 1057.21875 1147.046875 1056.699219 C 1145.328125 1055.246094 1143.476562 1053.933594 1141.519531 1052.820312 Z M 1141.519531 1052.855469 " fill-opacity="1" fill-rule="nonzero"/></g><g clip-path="url(#354cf8800c)"><path fill="#ffffff" d="M 1164.070312 1055.128906 C 1162.015625 1054.507812 1160.007812 1054.136719 1158.121094 1054.019531 C 1156.234375 1053.882812 1154.464844 1054.019531 1152.847656 1054.355469 C 1152.644531 1054.386719 1152.425781 1054.4375 1152.222656 1054.488281 C 1151.917969 1055.316406 1151.546875 1056.125 1151.125 1056.917969 C 1150.925781 1057.304688 1150.6875 1057.675781 1150.46875 1058.046875 C 1150.402344 1058.148438 1150.335938 1058.246094 1150.265625 1058.347656 C 1150.335938 1058.449219 1150.402344 1058.550781 1150.46875 1058.652344 C 1150.707031 1059.023438 1150.925781 1059.394531 1151.125 1059.765625 C 1151.546875 1060.554688 1151.917969 1061.367188 1152.222656 1062.191406 C 1152.425781 1062.242188 1152.644531 1062.292969 1152.847656 1062.324219 C 1153.046875 1062.359375 1153.25 1062.410156 1153.453125 1062.445312 C 1153.65625 1062.476562 1153.875 1062.496094 1154.074219 1062.527344 C 1154.496094 1062.597656 1154.9375 1062.613281 1155.375 1062.664062 C 1156.265625 1062.714844 1157.175781 1062.730469 1158.121094 1062.664062 C 1160.007812 1062.546875 1162.015625 1062.175781 1164.070312 1061.550781 C 1166.460938 1060.828125 1168.921875 1059.730469 1171.316406 1058.332031 C 1168.921875 1056.933594 1166.460938 1055.835938 1164.070312 1055.113281 Z M 1164.070312 1055.128906 " fill-opacity="1" fill-rule="nonzero"/></g><path fill="#ffffff" d="M 1098.058594 1055.617188 C 1096.945312 1055.617188 1095.984375 1056.292969 1095.5625 1057.253906 L 1087.289062 1057.253906 C 1086.902344 1056.546875 1086.144531 1056.058594 1085.265625 1056.058594 C 1084.390625 1056.058594 1083.632812 1056.546875 1083.242188 1057.253906 L 416.734375 1057.253906 C 416.347656 1056.546875 415.589844 1056.058594 414.714844 1056.058594 C 413.835938 1056.058594 413.078125 1056.546875 412.691406 1057.253906 L 404.414062 1057.253906 C 403.996094 1056.292969 403.035156 1055.617188 401.921875 1055.617188 C 400.421875 1055.617188 399.191406 1056.832031 399.191406 1058.347656 C 399.191406 1059.867188 400.40625 1061.078125 401.921875 1061.078125 C 403.035156 1061.078125 403.996094 1060.40625 404.414062 1059.445312 L 412.691406 1059.445312 C 413.078125 1060.152344 413.835938 1060.640625 414.714844 1060.640625 C 415.589844 1060.640625 416.347656 1060.152344 416.734375 1059.445312 L 1083.261719 1059.445312 C 1083.648438 1060.152344 1084.40625 1060.640625 1085.285156 1060.640625 C 1086.160156 1060.640625 1086.917969 1060.152344 1087.304688 1059.445312 L 1095.582031 1059.445312 C 1096 1060.40625 1096.960938 1061.078125 1098.074219 1061.078125 C 1099.574219 1061.078125 1100.804688 1059.867188 1100.804688 1058.347656 C 1100.804688 1056.832031 1099.589844 1055.617188 1098.074219 1055.617188 Z M 1098.058594 1055.617188 " fill-opacity="1" fill-rule="nonzero"/><g transform="matrix(1, 0, 0, 1, 448, 1076)"><g clip-path="url(#89d38adf66)"><g fill="#ffffff" fill-opacity="1"><g transform="translate(1.19945, 47.863838)"><g><path d="M 21.859375 0 L 4.328125 0 L 4.328125 -31.46875 L 21.859375 -31.46875 L 21.859375 -28.21875 L 7.984375 -28.21875 L 7.984375 -18.078125 L 21.03125 -18.078125 L 21.03125 -14.84375 L 7.984375 -14.84375 L 7.984375 -3.265625 L 21.859375 -3.265625 Z M 21.859375 0 "/></g></g></g><g fill="#ffffff" fill-opacity="1"><g transform="translate(25.709811, 47.863838)"><g><path d="M 25.265625 0 L 21.109375 0 L 12.65625 -13.84375 L 4.046875 0 L 0.171875 0 L 10.625 -16.4375 L 0.875 -31.46875 L 4.921875 -31.46875 L 12.734375 -19 L 20.625 -31.46875 L 24.515625 -31.46875 L 14.765625 -16.578125 Z M 25.265625 0 "/></g></g></g><g fill="#ffffff" fill-opacity="1"><g transform="translate(51.145493, 47.863838)"><g><path d="M 24.28125 -22.296875 C 24.28125 -19.109375 23.191406 -16.65625 21.015625 -14.9375 C 18.835938 -13.226562 15.726562 -12.375 11.6875 -12.375 L 7.984375 -12.375 L 7.984375 0 L 4.328125 0 L 4.328125 -31.46875 L 12.484375 -31.46875 C 20.347656 -31.46875 24.28125 -28.410156 24.28125 -22.296875 Z M 7.984375 -15.515625 L 11.28125 -15.515625 C 14.519531 -15.515625 16.863281 -16.035156 18.3125 -17.078125 C 19.757812 -18.128906 20.484375 -19.8125 20.484375 -22.125 C 20.484375 -24.207031 19.800781 -25.753906 18.4375 -26.765625 C 17.082031 -27.785156 14.960938 -28.296875 12.078125 -28.296875 L 7.984375 -28.296875 Z M 7.984375 -15.515625 "/></g></g></g><g fill="#ffffff" fill-opacity="1"><g transform="translate(77.678658, 47.863838)"><g><path d="M 4.328125 0 L 4.328125 -31.46875 L 7.984375 -31.46875 L 7.984375 -3.3125 L 21.859375 -3.3125 L 21.859375 0 Z M 4.328125 0 "/></g></g></g><g fill="#ffffff" fill-opacity="1"><g transform="translate(100.55356, 47.863838)"><g><path d="M 31.640625 -15.78125 C 31.640625 -10.738281 30.363281 -6.773438 27.8125 -3.890625 C 25.269531 -1.003906 21.734375 0.4375 17.203125 0.4375 C 12.566406 0.4375 8.988281 -0.976562 6.46875 -3.8125 C 3.945312 -6.65625 2.6875 -10.65625 2.6875 -15.8125 C 2.6875 -20.9375 3.945312 -24.910156 6.46875 -27.734375 C 9 -30.554688 12.585938 -31.96875 17.234375 -31.96875 C 21.753906 -31.96875 25.285156 -30.53125 27.828125 -27.65625 C 30.367188 -24.789062 31.640625 -20.832031 31.640625 -15.78125 Z M 6.5625 -15.78125 C 6.5625 -11.519531 7.46875 -8.285156 9.28125 -6.078125 C 11.101562 -3.878906 13.742188 -2.78125 17.203125 -2.78125 C 20.679688 -2.78125 23.3125 -3.875 25.09375 -6.0625 C 26.875 -8.257812 27.765625 -11.5 27.765625 -15.78125 C 27.765625 -20.007812 26.878906 -23.21875 25.109375 -25.40625 C 23.335938 -27.59375 20.710938 -28.6875 17.234375 -28.6875 C 13.753906 -28.6875 11.101562 -27.582031 9.28125 -25.375 C 7.46875 -23.175781 6.5625 -19.976562 6.5625 -15.78125 Z M 6.5625 -15.78125 "/></g></g></g><g fill="#ffffff" fill-opacity="1"><g transform="translate(134.876672, 47.863838)"><g><path d="M 7.984375 -13.078125 L 7.984375 0 L 4.328125 0 L 4.328125 -31.46875 L 12.953125 -31.46875 C 16.816406 -31.46875 19.671875 -30.726562 21.515625 -29.25 C 23.359375 -27.769531 24.28125 -25.546875 24.28125 -22.578125 C 24.28125 -18.410156 22.171875 -15.597656 17.953125 -14.140625 L 26.5 0 L 22.171875 0 L 14.546875 -13.078125 Z M 7.984375 -16.234375 L 13 -16.234375 C 15.582031 -16.234375 17.472656 -16.742188 18.671875 -17.765625 C 19.878906 -18.796875 20.484375 -20.335938 20.484375 -22.390625 C 20.484375 -24.460938 19.867188 -25.957031 18.640625 -26.875 C 17.421875 -27.800781 15.453125 -28.265625 12.734375 -28.265625 L 7.984375 -28.265625 Z M 7.984375 -16.234375 "/></g></g></g><g fill="#ffffff" fill-opacity="1"><g transform="translate(162.119958, 47.863838)"><g><path d="M 21.859375 0 L 4.328125 0 L 4.328125 -31.46875 L 21.859375 -31.46875 L 21.859375 -28.21875 L 7.984375 -28.21875 L 7.984375 -18.078125 L 21.03125 -18.078125 L 21.03125 -14.84375 L 7.984375 -14.84375 L 7.984375 -3.265625 L 21.859375 -3.265625 Z M 21.859375 0 "/></g></g></g><g fill="#ffffff" fill-opacity="1"><g transform="translate(186.630319, 47.863838)"><g/></g></g><g fill="#ffffff" fill-opacity="1"><g transform="translate(198.078543, 47.863838)"><g><path d="M 3.53125 -16.09375 C 3.53125 -17.832031 3.9375 -19.15625 4.75 -20.0625 C 5.5625 -20.96875 6.738281 -21.421875 8.28125 -21.421875 C 9.789062 -21.421875 10.960938 -20.972656 11.796875 -20.078125 C 12.628906 -19.191406 13.046875 -17.863281 13.046875 -16.09375 C 13.046875 -14.382812 12.628906 -13.066406 11.796875 -12.140625 C 10.972656 -11.222656 9.800781 -10.765625 8.28125 -10.765625 C 6.75 -10.765625 5.570312 -11.234375 4.75 -12.171875 C 3.9375 -13.109375 3.53125 -14.414062 3.53125 -16.09375 Z M 3.53125 -16.09375 "/></g></g></g><g fill="#ffffff" fill-opacity="1"><g transform="translate(214.648311, 47.863838)"><g/></g></g><g fill="#ffffff" fill-opacity="1"><g transform="translate(226.09652, 47.863838)"><g><path d="M 29.4375 -16.03125 C 29.4375 -10.84375 28.023438 -6.875 25.203125 -4.125 C 22.390625 -1.375 18.335938 0 13.046875 0 L 4.328125 0 L 4.328125 -31.46875 L 13.96875 -31.46875 C 18.863281 -31.46875 22.664062 -30.109375 25.375 -27.390625 C 28.082031 -24.679688 29.4375 -20.894531 29.4375 -16.03125 Z M 25.5625 -15.90625 C 25.5625 -20.007812 24.53125 -23.097656 22.46875 -25.171875 C 20.414062 -27.253906 17.359375 -28.296875 13.296875 -28.296875 L 7.984375 -28.296875 L 7.984375 -3.15625 L 12.4375 -3.15625 C 16.800781 -3.15625 20.078125 -4.226562 22.265625 -6.375 C 24.460938 -8.519531 25.5625 -11.695312 25.5625 -15.90625 Z M 25.5625 -15.90625 "/></g></g></g><g fill="#ffffff" fill-opacity="1"><g transform="translate(258.224682, 47.863838)"><g><path d="M 4.328125 0 L 4.328125 -31.46875 L 7.984375 -31.46875 L 7.984375 0 Z M 4.328125 0 "/></g></g></g><g fill="#ffffff" fill-opacity="1"><g transform="translate(270.512143, 47.863838)"><g><path d="M 22.078125 -8.375 C 22.078125 -5.601562 21.070312 -3.441406 19.0625 -1.890625 C 17.0625 -0.335938 14.335938 0.4375 10.890625 0.4375 C 7.160156 0.4375 4.289062 -0.046875 2.28125 -1.015625 L 2.28125 -4.546875 C 3.570312 -3.992188 4.976562 -3.5625 6.5 -3.25 C 8.019531 -2.9375 9.523438 -2.78125 11.015625 -2.78125 C 13.453125 -2.78125 15.285156 -3.238281 16.515625 -4.15625 C 17.753906 -5.082031 18.375 -6.375 18.375 -8.03125 C 18.375 -9.113281 18.15625 -10.003906 17.71875 -10.703125 C 17.28125 -11.398438 16.546875 -12.039062 15.515625 -12.625 C 14.492188 -13.21875 12.9375 -13.890625 10.84375 -14.640625 C 7.914062 -15.679688 5.820312 -16.921875 4.5625 -18.359375 C 3.3125 -19.796875 2.6875 -21.664062 2.6875 -23.96875 C 2.6875 -26.394531 3.597656 -28.328125 5.421875 -29.765625 C 7.242188 -31.203125 9.65625 -31.921875 12.65625 -31.921875 C 15.78125 -31.921875 18.65625 -31.347656 21.28125 -30.203125 L 20.140625 -27.015625 C 17.546875 -28.097656 15.019531 -28.640625 12.5625 -28.640625 C 10.625 -28.640625 9.109375 -28.222656 8.015625 -27.390625 C 6.929688 -26.566406 6.390625 -25.414062 6.390625 -23.9375 C 6.390625 -22.84375 6.585938 -21.945312 6.984375 -21.25 C 7.390625 -20.550781 8.066406 -19.910156 9.015625 -19.328125 C 9.972656 -18.753906 11.4375 -18.113281 13.40625 -17.40625 C 16.707031 -16.226562 18.976562 -14.960938 20.21875 -13.609375 C 21.457031 -12.265625 22.078125 -10.519531 22.078125 -8.375 Z M 22.078125 -8.375 "/></g></g></g><g fill="#ffffff" fill-opacity="1"><g transform="translate(294.699697, 47.863838)"><g><path d="M 17.796875 -28.640625 C 14.335938 -28.640625 11.609375 -27.488281 9.609375 -25.1875 C 7.609375 -22.882812 6.609375 -19.734375 6.609375 -15.734375 C 6.609375 -11.617188 7.570312 -8.4375 9.5 -6.1875 C 11.425781 -3.9375 14.175781 -2.8125 17.75 -2.8125 C 19.945312 -2.8125 22.453125 -3.207031 25.265625 -4 L 25.265625 -0.796875 C 23.085938 0.0234375 20.398438 0.4375 17.203125 0.4375 C 12.566406 0.4375 8.988281 -0.96875 6.46875 -3.78125 C 3.945312 -6.59375 2.6875 -10.59375 2.6875 -15.78125 C 2.6875 -19.019531 3.289062 -21.859375 4.5 -24.296875 C 5.71875 -26.734375 7.46875 -28.613281 9.75 -29.9375 C 12.039062 -31.257812 14.738281 -31.921875 17.84375 -31.921875 C 21.144531 -31.921875 24.03125 -31.316406 26.5 -30.109375 L 24.9375 -26.96875 C 22.5625 -28.082031 20.179688 -28.640625 17.796875 -28.640625 Z M 17.796875 -28.640625 "/></g></g></g><g fill="#ffffff" fill-opacity="1"><g transform="translate(322.502505, 47.863838)"><g><path d="M 31.640625 -15.78125 C 31.640625 -10.738281 30.363281 -6.773438 27.8125 -3.890625 C 25.269531 -1.003906 21.734375 0.4375 17.203125 0.4375 C 12.566406 0.4375 8.988281 -0.976562 6.46875 -3.8125 C 3.945312 -6.65625 2.6875 -10.65625 2.6875 -15.8125 C 2.6875 -20.9375 3.945312 -24.910156 6.46875 -27.734375 C 9 -30.554688 12.585938 -31.96875 17.234375 -31.96875 C 21.753906 -31.96875 25.285156 -30.53125 27.828125 -27.65625 C 30.367188 -24.789062 31.640625 -20.832031 31.640625 -15.78125 Z M 6.5625 -15.78125 C 6.5625 -11.519531 7.46875 -8.285156 9.28125 -6.078125 C 11.101562 -3.878906 13.742188 -2.78125 17.203125 -2.78125 C 20.679688 -2.78125 23.3125 -3.875 25.09375 -6.0625 C 26.875 -8.257812 27.765625 -11.5 27.765625 -15.78125 C 27.765625 -20.007812 26.878906 -23.21875 25.109375 -25.40625 C 23.335938 -27.59375 20.710938 -28.6875 17.234375 -28.6875 C 13.753906 -28.6875 11.101562 -27.582031 9.28125 -25.375 C 7.46875 -23.175781 6.5625 -19.976562 6.5625 -15.78125 Z M 6.5625 -15.78125 "/></g></g></g><g fill="#ffffff" fill-opacity="1"><g transform="translate(356.825617, 47.863838)"><g><path d="M 22.296875 -31.46875 L 26.234375 -31.46875 L 14.890625 0 L 11.28125 0 L 0 -31.46875 L 3.875 -31.46875 L 11.109375 -11.109375 C 11.941406 -8.765625 12.597656 -6.488281 13.078125 -4.28125 C 13.597656 -6.601562 14.273438 -8.921875 15.109375 -11.234375 Z M 22.296875 -31.46875 "/></g></g></g><g fill="#ffffff" fill-opacity="1"><g transform="translate(383.057513, 47.863838)"><g><path d="M 21.859375 0 L 4.328125 0 L 4.328125 -31.46875 L 21.859375 -31.46875 L 21.859375 -28.21875 L 7.984375 -28.21875 L 7.984375 -18.078125 L 21.03125 -18.078125 L 21.03125 -14.84375 L 7.984375 -14.84375 L 7.984375 -3.265625 L 21.859375 -3.265625 Z M 21.859375 0 "/></g></g></g><g fill="#ffffff" fill-opacity="1"><g transform="translate(407.567874, 47.863838)"><g><path d="M 7.984375 -13.078125 L 7.984375 0 L 4.328125 0 L 4.328125 -31.46875 L 12.953125 -31.46875 C 16.816406 -31.46875 19.671875 -30.726562 21.515625 -29.25 C 23.359375 -27.769531 24.28125 -25.546875 24.28125 -22.578125 C 24.28125 -18.410156 22.171875 -15.597656 17.953125 -14.140625 L 26.5 0 L 22.171875 0 L 14.546875 -13.078125 Z M 7.984375 -16.234375 L 13 -16.234375 C 15.582031 -16.234375 17.472656 -16.742188 18.671875 -17.765625 C 19.878906 -18.796875 20.484375 -20.335938 20.484375 -22.390625 C 20.484375 -24.460938 19.867188 -25.957031 18.640625 -26.875 C 17.421875 -27.800781 15.453125 -28.265625 12.734375 -28.265625 L 7.984375 -28.265625 Z M 7.984375 -16.234375 "/></g></g></g><g fill="#ffffff" fill-opacity="1"><g transform="translate(434.81116, 47.863838)"><g/></g></g><g fill="#ffffff" fill-opacity="1"><g transform="translate(446.259384, 47.863838)"><g><path d="M 3.53125 -16.09375 C 3.53125 -17.832031 3.9375 -19.15625 4.75 -20.0625 C 5.5625 -20.96875 6.738281 -21.421875 8.28125 -21.421875 C 9.789062 -21.421875 10.960938 -20.972656 11.796875 -20.078125 C 12.628906 -19.191406 13.046875 -17.863281 13.046875 -16.09375 C 13.046875 -14.382812 12.628906 -13.066406 11.796875 -12.140625 C 10.972656 -11.222656 9.800781 -10.765625 8.28125 -10.765625 C 6.75 -10.765625 5.570312 -11.234375 4.75 -12.171875 C 3.9375 -13.109375 3.53125 -14.414062 3.53125 -16.09375 Z M 3.53125 -16.09375 "/></g></g></g><g fill="#ffffff" fill-opacity="1"><g transform="translate(462.829153, 47.863838)"><g/></g></g><g fill="#ffffff" fill-opacity="1"><g transform="translate(474.277346, 47.863838)"><g><path d="M 21.859375 0 L 4.328125 0 L 4.328125 -31.46875 L 21.859375 -31.46875 L 21.859375 -28.21875 L 7.984375 -28.21875 L 7.984375 -18.078125 L 21.03125 -18.078125 L 21.03125 -14.84375 L 7.984375 -14.84375 L 7.984375 -3.265625 L 21.859375 -3.265625 Z M 21.859375 0 "/></g></g></g><g fill="#ffffff" fill-opacity="1"><g transform="translate(498.787706, 47.863838)"><g><path d="M 28.90625 0 L 24.734375 0 L 7.53125 -26.40625 L 7.359375 -26.40625 C 7.585938 -23.3125 7.703125 -20.472656 7.703125 -17.890625 L 7.703125 0 L 4.328125 0 L 4.328125 -31.46875 L 8.453125 -31.46875 L 25.609375 -5.171875 L 25.78125 -5.171875 C 25.75 -5.554688 25.679688 -6.796875 25.578125 -8.890625 C 25.484375 -10.992188 25.453125 -12.5 25.484375 -13.40625 L 25.484375 -31.46875 L 28.90625 -31.46875 Z M 28.90625 0 "/></g></g></g><g fill="#ffffff" fill-opacity="1"><g transform="translate(532.013335, 47.863838)"><g><path d="M -0.265625 8.28125 C -1.609375 8.28125 -2.664062 8.085938 -3.4375 7.703125 L -3.4375 4.578125 C -2.425781 4.867188 -1.367188 5.015625 -0.265625 5.015625 C 1.160156 5.015625 2.242188 4.582031 2.984375 3.71875 C 3.722656 2.863281 4.09375 1.625 4.09375 0 L 4.09375 -31.46875 L 7.75 -31.46875 L 7.75 -0.296875 C 7.75 2.421875 7.054688 4.53125 5.671875 6.03125 C 4.296875 7.53125 2.316406 8.28125 -0.265625 8.28125 Z M -0.265625 8.28125 "/></g></g></g><g fill="#ffffff" fill-opacity="1"><g transform="translate(543.784336, 47.863838)"><g><path d="M 31.640625 -15.78125 C 31.640625 -10.738281 30.363281 -6.773438 27.8125 -3.890625 C 25.269531 -1.003906 21.734375 0.4375 17.203125 0.4375 C 12.566406 0.4375 8.988281 -0.976562 6.46875 -3.8125 C 3.945312 -6.65625 2.6875 -10.65625 2.6875 -15.8125 C 2.6875 -20.9375 3.945312 -24.910156 6.46875 -27.734375 C 9 -30.554688 12.585938 -31.96875 17.234375 -31.96875 C 21.753906 -31.96875 25.285156 -30.53125 27.828125 -27.65625 C 30.367188 -24.789062 31.640625 -20.832031 31.640625 -15.78125 Z M 6.5625 -15.78125 C 6.5625 -11.519531 7.46875 -8.285156 9.28125 -6.078125 C 11.101562 -3.878906 13.742188 -2.78125 17.203125 -2.78125 C 20.679688 -2.78125 23.3125 -3.875 25.09375 -6.0625 C 26.875 -8.257812 27.765625 -11.5 27.765625 -15.78125 C 27.765625 -20.007812 26.878906 -23.21875 25.109375 -25.40625 C 23.335938 -27.59375 20.710938 -28.6875 17.234375 -28.6875 C 13.753906 -28.6875 11.101562 -27.582031 9.28125 -25.375 C 7.46875 -23.175781 6.5625 -19.976562 6.5625 -15.78125 Z M 6.5625 -15.78125 "/></g></g></g><g fill="#ffffff" fill-opacity="1"><g transform="translate(578.107479, 47.863838)"><g><path d="M 12.328125 -15.734375 L 20.71875 -31.46875 L 24.6875 -31.46875 L 14.1875 -12.203125 L 14.1875 0 L 10.484375 0 L 10.484375 -12.03125 L 0 -31.46875 L 4 -31.46875 Z M 12.328125 -15.734375 "/></g></g></g></g></g></svg>