<svg xmlns="http://www.w3.org/2000/svg" xmlns:xlink="http://www.w3.org/1999/xlink" width="2000" zoomAndPan="magnify" viewBox="0 0 1500 1499.999933" height="2000" preserveAspectRatio="xMidYMid meet" version="1.0"><defs><filter x="0%" y="0%" width="100%" height="100%" id="f7afa2e9da"><feColorMatrix values="0 0 0 0 1 0 0 0 0 1 0 0 0 0 1 0 0 0 1 0" color-interpolation-filters="sRGB"/></filter><g/><clipPath id="f44e8b9680"><path d="M 276.003906 366.597656 L 1224.003906 366.597656 L 1224.003906 840.597656 L 276.003906 840.597656 Z M 276.003906 366.597656 " clip-rule="nonzero"/></clipPath><clipPath id="ce6e5714b2"><path d="M 0.238281 0.597656 L 948 0.597656 L 948 474.585938 L 0.238281 474.585938 Z M 0.238281 0.597656 " clip-rule="nonzero"/></clipPath><clipPath id="b9e7b63268"><rect x="0" width="949" y="0" height="475"/></clipPath><mask id="bbda62d1a6"><g filter="url(#f7afa2e9da)"><rect x="-150" width="1800" fill="#000000" y="-149.999993" height="1799.99992" fill-opacity="0.36"/></g></mask><clipPath id="c686afa60f"><path d="M 0.753906 0.476562 L 804 0.476562 L 804 409.59375 L 0.753906 409.59375 Z M 0.753906 0.476562 " clip-rule="nonzero"/></clipPath><clipPath id="5177dc195a"><path d="M 803.246094 409.59375 C 803.246094 186.753906 620.554688 0.476562 402 0.476562 C 183.445312 0.476562 0.753906 186.753906 0.753906 409.59375 Z M 803.246094 409.59375 " clip-rule="nonzero"/></clipPath><clipPath id="8c9c88655a"><path d="M 0.753906 0.476562 L 803.28125 0.476562 L 803.28125 409.59375 L 0.753906 409.59375 Z M 0.753906 0.476562 " clip-rule="nonzero"/></clipPath><clipPath id="d2442e7501"><path d="M 803.246094 409.59375 C 803.246094 186.753906 620.554688 0.476562 402 0.476562 C 183.445312 0.476562 0.753906 186.753906 0.753906 409.59375 Z M 803.246094 409.59375 " clip-rule="nonzero"/></clipPath><clipPath id="30a7a49a44"><rect x="0" width="804" y="0" height="410"/></clipPath><clipPath id="9bc01cef30"><rect x="0" width="805" y="0" height="410"/></clipPath><mask id="e2809e1046"><g filter="url(#f7afa2e9da)"><rect x="-150" width="1800" fill="#000000" y="-149.999993" height="1799.99992" fill-opacity="0.36"/></g></mask><clipPath id="86bbbcaa89"><path d="M 0.253906 0.28125 L 874 0.28125 L 874 445.59375 L 0.253906 445.59375 Z M 0.253906 0.28125 " clip-rule="nonzero"/></clipPath><clipPath id="30368d7d17"><path d="M 873.746094 445.59375 C 873.746094 203.039062 674.890625 0.28125 437 0.28125 C 199.109375 0.28125 0.253906 203.039062 0.253906 445.59375 Z M 873.746094 445.59375 " clip-rule="nonzero"/></clipPath><clipPath id="45e1c53cb9"><path d="M 0.253906 0.28125 L 873.800781 0.28125 L 873.800781 445.59375 L 0.253906 445.59375 Z M 0.253906 0.28125 " clip-rule="nonzero"/></clipPath><clipPath id="401442591f"><path d="M 873.746094 445.59375 C 873.746094 203.039062 674.890625 0.28125 437 0.28125 C 199.109375 0.28125 0.253906 203.039062 0.253906 445.59375 Z M 873.746094 445.59375 " clip-rule="nonzero"/></clipPath><clipPath id="dcf911ab9b"><rect x="0" width="874" y="0" height="446"/></clipPath><clipPath id="103a7a9c1f"><rect x="0" width="876" y="0" height="446"/></clipPath><clipPath id="f6c1708968"><path d="M 739 531.671875 L 761 531.671875 L 761 606 L 739 606 Z M 739 531.671875 " clip-rule="nonzero"/></clipPath><clipPath id="4e73da19a3"><path d="M 487.949219 821 L 1012.199219 821 L 1012.199219 842 L 487.949219 842 Z M 487.949219 821 " clip-rule="nonzero"/></clipPath><clipPath id="ff88134d5a"><path d="M 669 912 L 830 912 L 830 933.671875 L 669 933.671875 Z M 669 912 " clip-rule="nonzero"/></clipPath><clipPath id="0cfa9181e5"><path d="M 351 1052.210938 L 398 1052.210938 L 398 1064 L 351 1064 Z M 351 1052.210938 " clip-rule="nonzero"/></clipPath><clipPath id="f561bcac78"><path d="M 328.679688 1053 L 350 1053 L 350 1063 L 328.679688 1063 Z M 328.679688 1053 " clip-rule="nonzero"/></clipPath><clipPath id="eb8bf5b1ea"><path d="M 1103 1052.210938 L 1150 1052.210938 L 1150 1064 L 1103 1064 Z M 1103 1052.210938 " clip-rule="nonzero"/></clipPath><clipPath id="0115225b18"><path d="M 1150 1053 L 1171.679688 1053 L 1171.679688 1063 L 1150 1063 Z M 1150 1053 " clip-rule="nonzero"/></clipPath><clipPath id="915b0678e2"><rect x="0" width="604" y="0" height="61"/></clipPath></defs><g clip-path="url(#f44e8b9680)"><g transform="matrix(1, 0, 0, 1, 276, 366)"><g clip-path="url(#b9e7b63268)"><g clip-path="url(#ce6e5714b2)"><path fill="#ffee78" d="M 947.585938 474.585938 C 947.585938 212.773438 735.414062 0.597656 473.597656 0.597656 C 211.785156 0.597656 0.410156 212.773438 0.410156 474.585938 Z M 947.585938 474.585938 " fill-opacity="1" fill-rule="nonzero"/></g></g></g></g><g fill="#000000" fill-opacity="1"><g transform="translate(196.0015, 1030.546403)"><g><path d="M 3.984375 0 L 3.984375 -71.65625 L 32.078125 -71.65625 C 36.628906 -71.65625 41.023438 -71.203125 45.265625 -70.296875 C 49.515625 -69.390625 53.5 -67.570312 57.21875 -64.84375 C 62.070312 -61.195312 65.5625 -56.945312 67.6875 -52.09375 C 69.726562 -47.164062 70.75 -41.742188 70.75 -35.828125 C 70.75 -29.910156 69.648438 -24.601562 67.453125 -19.90625 C 65.179688 -15.207031 62 -11.265625 57.90625 -8.078125 C 53.800781 -4.660156 49.398438 -2.460938 44.703125 -1.484375 C 39.921875 -0.492188 34.953125 0 29.796875 0 Z M 27.1875 -19.5625 L 30.71875 -19.5625 C 36.175781 -19.5625 40.382812 -20.851562 43.34375 -23.4375 C 46.300781 -25.9375 47.78125 -30.066406 47.78125 -35.828125 C 47.78125 -41.742188 46.257812 -45.953125 43.21875 -48.453125 C 40.1875 -50.878906 35.828125 -52.09375 30.140625 -52.09375 L 27.1875 -52.09375 Z M 27.1875 -19.5625 "/></g></g></g><g fill="#000000" fill-opacity="1"><g transform="translate(276.19045, 1030.546403)"><g><path d="M 3.984375 -71.65625 L 27.1875 -71.65625 L 27.1875 0 L 3.984375 0 Z M 3.984375 -71.65625 "/></g></g></g><g fill="#000000" fill-opacity="1"><g transform="translate(314.977266, 1030.546403)"><g><path d="M 81.5625 -65.515625 L 41.859375 5.796875 L 39.921875 5.796875 L 0 -65.515625 L 24.453125 -75.640625 L 41.40625 -37.078125 L 58.46875 -75.640625 Z M 81.5625 -65.515625 "/></g></g></g><g fill="#000000" fill-opacity="1"><g transform="translate(403.014414, 1030.546403)"><g><path d="M 3.984375 -71.65625 L 27.1875 -71.65625 L 27.1875 0 L 3.984375 0 Z M 3.984375 -71.65625 "/></g></g></g><g fill="#000000" fill-opacity="1"><g transform="translate(441.80123, 1030.546403)"><g><path d="M 3.984375 -74.5 L 5.578125 -74.5 L 43.5625 -42.890625 L 43.5625 -71.65625 L 66.765625 -71.65625 L 66.765625 3.40625 L 64.953125 3.40625 L 27.1875 -27.640625 L 27.1875 0 L 3.984375 0 Z M 3.984375 -74.5 "/></g></g></g><g fill="#000000" fill-opacity="1"><g transform="translate(520.284256, 1030.546403)"><g><path d="M 50.15625 -71.65625 L 49.484375 -52.09375 L 26.734375 -52.09375 L 26.734375 -43 L 45.046875 -43 L 44.359375 -27.296875 L 26.734375 -27.296875 L 26.734375 -19.5625 L 50.15625 -19.5625 L 49.484375 0 L 3.53125 0 L 3.53125 -71.65625 Z M 50.15625 -71.65625 "/></g></g></g><g fill="#000000" fill-opacity="1"><g transform="translate(614.919219, 1030.546403)"><g><path d="M 81.5625 -65.515625 L 41.859375 5.796875 L 39.921875 5.796875 L 0 -65.515625 L 24.453125 -75.640625 L 41.40625 -37.078125 L 58.46875 -75.640625 Z M 81.5625 -65.515625 "/></g></g></g><g fill="#000000" fill-opacity="1"><g transform="translate(702.956367, 1030.546403)"><g><path d="M 3.984375 -71.65625 L 27.1875 -71.65625 L 27.1875 0 L 3.984375 0 Z M 3.984375 -71.65625 "/></g></g></g><g fill="#000000" fill-opacity="1"><g transform="translate(741.743183, 1030.546403)"><g><path d="M 50.15625 -71.65625 L 49.484375 -52.09375 L 26.734375 -52.09375 L 26.734375 -43 L 45.046875 -43 L 44.359375 -27.296875 L 26.734375 -27.296875 L 26.734375 -19.5625 L 50.15625 -19.5625 L 49.484375 0 L 3.53125 0 L 3.53125 -71.65625 Z M 50.15625 -71.65625 "/></g></g></g><g fill="#000000" fill-opacity="1"><g transform="translate(801.45854, 1030.546403)"><g><path d="M -1.484375 -66.890625 L 24.34375 -74.96875 L 33.78125 -45.046875 L 47.65625 -63.8125 L 62 -45.046875 L 70.984375 -74.96875 L 96.453125 -66.890625 L 68.703125 4.890625 L 67.796875 4.890625 L 47.4375 -25.359375 L 27.1875 4.890625 L 26.28125 4.890625 Z M -1.484375 -66.890625 "/></g></g></g><g fill="#000000" fill-opacity="1"><g transform="translate(903.485997, 1030.546403)"><g/></g></g><g fill="#000000" fill-opacity="1"><g transform="translate(938.40558, 1030.546403)"><g><path d="M 43.5625 0 L 20.015625 0 L 20.015625 -52.09375 L 0 -52.09375 L 0.6875 -71.65625 L 63.59375 -71.65625 L 63.015625 -52.09375 L 43.5625 -52.09375 Z M 43.5625 0 "/></g></g></g><g fill="#000000" fill-opacity="1"><g transform="translate(1008.471431, 1030.546403)"><g><path d="M 11.71875 -10.46875 C 8.300781 -14.175781 5.875 -18.082031 4.4375 -22.1875 C 3 -26.195312 2.28125 -30.707031 2.28125 -35.71875 C 2.28125 -40.945312 3.226562 -45.800781 5.125 -50.28125 C 7.019531 -54.75 9.632812 -58.65625 12.96875 -62 C 16.300781 -65.332031 20.242188 -67.945312 24.796875 -69.84375 C 29.273438 -71.738281 34.128906 -72.6875 39.359375 -72.6875 C 44.359375 -72.6875 48.984375 -71.96875 53.234375 -70.53125 C 57.484375 -69.007812 61.3125 -66.65625 64.71875 -63.46875 C 68.363281 -60.0625 71.25 -55.96875 73.375 -51.1875 C 75.414062 -46.332031 76.4375 -41.175781 76.4375 -35.71875 C 76.4375 -30.707031 75.71875 -26.195312 74.28125 -22.1875 C 72.84375 -18.082031 70.414062 -14.175781 67 -10.46875 C 63.351562 -6.59375 59.144531 -3.707031 54.375 -1.8125 C 49.519531 0.0820312 44.476562 1.03125 39.25 1.03125 C 33.9375 1.03125 28.96875 0.0820312 24.34375 -1.8125 C 19.644531 -3.632812 15.4375 -6.519531 11.71875 -10.46875 Z M 23.78125 -35.71875 C 23.78125 -33.445312 24.15625 -31.25 24.90625 -29.125 C 25.59375 -26.925781 26.617188 -25.03125 27.984375 -23.4375 C 29.273438 -21.769531 30.90625 -20.441406 32.875 -19.453125 C 34.769531 -18.390625 36.929688 -17.859375 39.359375 -17.859375 C 41.785156 -17.859375 43.984375 -18.390625 45.953125 -19.453125 C 47.847656 -20.441406 49.476562 -21.769531 50.84375 -23.4375 C 52.132812 -25.03125 53.160156 -26.925781 53.921875 -29.125 C 54.597656 -31.25 54.9375 -33.445312 54.9375 -35.71875 C 54.9375 -37.988281 54.597656 -40.222656 53.921875 -42.421875 C 53.160156 -44.546875 52.132812 -46.484375 50.84375 -48.234375 C 49.476562 -49.898438 47.847656 -51.265625 45.953125 -52.328125 C 43.984375 -53.390625 41.785156 -53.921875 39.359375 -53.921875 C 36.859375 -53.921875 34.660156 -53.425781 32.765625 -52.4375 C 30.785156 -51.375 29.15625 -50.007812 27.875 -48.34375 C 26.507812 -46.601562 25.484375 -44.628906 24.796875 -42.421875 C 24.117188 -40.222656 23.78125 -37.988281 23.78125 -35.71875 Z M 23.78125 -35.71875 "/></g></g></g><g fill="#000000" fill-opacity="1"><g transform="translate(1093.665089, 1030.546403)"><g><path d="M 26.84375 -71.65625 L 26.84375 -30.828125 C 26.84375 -29.609375 26.921875 -28.242188 27.078125 -26.734375 C 27.148438 -25.140625 27.414062 -23.695312 27.875 -22.40625 C 28.320312 -21.113281 29.039062 -20.015625 30.03125 -19.109375 C 30.9375 -18.203125 32.222656 -17.75 33.890625 -17.75 C 35.640625 -17.75 37.007812 -18.203125 38 -19.109375 C 38.90625 -19.941406 39.585938 -21.039062 40.046875 -22.40625 C 40.492188 -23.695312 40.796875 -25.101562 40.953125 -26.625 C 41.023438 -28.132812 41.0625 -29.535156 41.0625 -30.828125 L 41.0625 -71.65625 L 64.265625 -71.65625 L 64.265625 -29 C 64.265625 -18.539062 61.914062 -10.769531 57.21875 -5.6875 C 52.4375 -0.601562 44.660156 1.894531 33.890625 1.8125 C 23.128906 1.8125 15.394531 -0.722656 10.6875 -5.796875 C 5.988281 -10.878906 3.640625 -18.613281 3.640625 -29 L 3.640625 -71.65625 Z M 26.84375 -71.65625 "/></g></g></g><g fill="#000000" fill-opacity="1"><g transform="translate(1168.053144, 1030.546403)"><g><path d="M 34.8125 -71.65625 C 38.601562 -71.65625 42.203125 -71.238281 45.609375 -70.40625 C 49.023438 -69.5 52.019531 -68.132812 54.59375 -66.3125 C 57.175781 -64.414062 59.226562 -61.988281 60.75 -59.03125 C 62.1875 -56 62.867188 -52.320312 62.796875 -48 C 62.710938 -44.132812 62.101562 -40.6875 60.96875 -37.65625 C 59.757812 -34.613281 57.5625 -31.882812 54.375 -29.46875 L 53.125 -28.546875 L 64.84375 -7.84375 L 43.796875 2.28125 L 29.6875 -25.359375 L 28.546875 -25.25 L 28.4375 0 L 5.234375 0 L 5.234375 -71.65625 Z M 28.4375 -52.4375 L 28.4375 -39.125 L 29.796875 -39.125 C 30.859375 -39.125 31.957031 -39.164062 33.09375 -39.25 C 34.15625 -39.320312 35.179688 -39.546875 36.171875 -39.921875 C 37.304688 -40.304688 38.289062 -41.03125 39.125 -42.09375 C 39.957031 -43.070312 40.375 -44.394531 40.375 -46.0625 C 40.457031 -47.738281 40.117188 -49.03125 39.359375 -49.9375 C 38.523438 -50.769531 37.578125 -51.375 36.515625 -51.75 C 35.753906 -52.0625 34.957031 -52.253906 34.125 -52.328125 C 33.289062 -52.398438 32.457031 -52.4375 31.625 -52.4375 Z M 28.4375 -52.4375 "/></g></g></g><g fill="#000000" fill-opacity="1"><g transform="translate(1239.825171, 1030.546403)"><g><path d="M 33.21875 -73.03125 C 36.175781 -73.03125 39.207031 -72.648438 42.3125 -71.890625 C 45.34375 -71.128906 48.1875 -69.992188 50.84375 -68.484375 C 53.5 -66.960938 55.8125 -65.066406 57.78125 -62.796875 C 59.757812 -60.515625 61.164062 -57.820312 62 -54.71875 L 47.09375 -45.265625 C 45.800781 -47.921875 43.867188 -50.007812 41.296875 -51.53125 C 38.710938 -53.039062 35.941406 -53.875 32.984375 -54.03125 L 30.9375 -54.03125 C 30.257812 -54.03125 29.539062 -53.992188 28.78125 -53.921875 C 27.945312 -53.765625 27.1875 -53.535156 26.5 -53.234375 C 25.738281 -52.929688 25.132812 -52.515625 24.6875 -51.984375 C 24.226562 -51.453125 24 -50.734375 24 -49.828125 C 24 -48.535156 24.566406 -47.585938 25.703125 -46.984375 C 26.765625 -46.296875 27.941406 -45.765625 29.234375 -45.390625 L 45.5 -40.84375 C 48.15625 -40.082031 50.503906 -39.207031 52.546875 -38.21875 C 54.597656 -37.15625 56.34375 -35.90625 57.78125 -34.46875 C 59.226562 -32.945312 60.328125 -31.164062 61.078125 -29.125 C 61.835938 -27 62.21875 -24.492188 62.21875 -21.609375 C 62.21875 -17.742188 61.382812 -14.332031 59.71875 -11.375 C 57.976562 -8.414062 55.851562 -5.988281 53.34375 -4.09375 C 50.539062 -2.050781 47.472656 -0.648438 44.140625 0.109375 C 40.796875 0.941406 37.269531 1.359375 33.5625 1.359375 C 27.039062 1.359375 21.007812 -0.00390625 15.46875 -2.734375 C 9.851562 -5.390625 5.34375 -9.5625 1.9375 -15.25 L 16.71875 -26.5 C 17.550781 -24.988281 18.613281 -23.660156 19.90625 -22.515625 C 21.113281 -21.378906 22.515625 -20.472656 24.109375 -19.796875 C 25.628906 -19.035156 27.257812 -18.46875 29 -18.09375 C 30.675781 -17.707031 32.347656 -17.515625 34.015625 -17.515625 C 34.773438 -17.515625 35.570312 -17.59375 36.40625 -17.75 C 37.15625 -17.820312 37.875 -18.046875 38.5625 -18.421875 C 39.238281 -18.722656 39.804688 -19.140625 40.265625 -19.671875 C 40.722656 -20.203125 40.953125 -20.882812 40.953125 -21.71875 C 40.878906 -22.707031 40.5 -23.503906 39.8125 -24.109375 C 39.050781 -24.640625 37.988281 -25.132812 36.625 -25.59375 L 20.015625 -30.828125 C 17.671875 -31.585938 15.507812 -32.535156 13.53125 -33.671875 C 11.5625 -34.734375 9.894531 -36.0625 8.53125 -37.65625 C 7.09375 -39.164062 5.992188 -40.945312 5.234375 -43 C 4.398438 -45.039062 3.984375 -47.351562 3.984375 -49.9375 C 4.128906 -53.957031 5.078125 -57.445312 6.828125 -60.40625 C 8.492188 -63.28125 10.691406 -65.664062 13.421875 -67.5625 C 16.148438 -69.457031 19.257812 -70.863281 22.75 -71.78125 C 26.164062 -72.613281 29.65625 -73.03125 33.21875 -73.03125 Z M 33.21875 -73.03125 "/></g></g></g><g mask="url(#bbda62d1a6)"><g transform="matrix(1, 0, 0, 1, 348, 431)"><g clip-path="url(#9bc01cef30)"><g clip-path="url(#c686afa60f)"><g clip-path="url(#5177dc195a)"><g transform="matrix(1, 0, 0, 1, 0, 0.000000000000113687)"><g clip-path="url(#30a7a49a44)"><g clip-path="url(#8c9c88655a)"><g clip-path="url(#d2442e7501)"><path fill="#ebba61" d="M 0.753906 0.476562 L 803.003906 0.476562 L 803.003906 409.59375 L 0.753906 409.59375 Z M 0.753906 0.476562 " fill-opacity="1" fill-rule="nonzero"/></g></g></g></g></g></g></g></g></g><g mask="url(#e2809e1046)"><g transform="matrix(1, 0, 0, 1, 313, 395)"><g clip-path="url(#103a7a9c1f)"><g clip-path="url(#86bbbcaa89)"><g clip-path="url(#30368d7d17)"><g transform="matrix(1, 0, 0, 1, 0, 0.000000000000113687)"><g clip-path="url(#dcf911ab9b)"><g clip-path="url(#45e1c53cb9)"><g clip-path="url(#401442591f)"><path fill="#ebba61" d="M 0.253906 0.28125 L 873.476562 0.28125 L 873.476562 445.59375 L 0.253906 445.59375 Z M 0.253906 0.28125 " fill-opacity="1" fill-rule="nonzero"/></g></g></g></g></g></g></g></g></g><g clip-path="url(#f6c1708968)"><path fill="#040404" d="M 749.214844 531.765625 L 749.902344 531.765625 C 755.511719 531.734375 760.082031 536.253906 760.113281 541.855469 L 760.390625 595.566406 C 760.421875 601.167969 755.898438 605.738281 750.289062 605.765625 L 749.601562 605.769531 C 743.992188 605.796875 739.421875 601.28125 739.394531 595.675781 L 739.113281 541.96875 C 739.082031 536.363281 743.605469 531.796875 749.214844 531.765625 Z M 749.214844 531.765625 " fill-opacity="1" fill-rule="nonzero"/></g><path fill="#040404" d="M 862.496094 559.878906 L 862.980469 560.132812 C 868.125 562.835938 870.109375 569.1875 867.40625 574.328125 L 842.90625 620.949219 C 840.203125 626.089844 833.84375 628.070312 828.699219 625.371094 L 828.214844 625.117188 C 823.070312 622.417969 821.085938 616.0625 823.789062 610.921875 L 848.289062 564.300781 C 850.992188 559.160156 857.351562 557.179688 862.496094 559.878906 Z M 862.496094 559.878906 " fill-opacity="1" fill-rule="nonzero"/><path fill="#040404" d="M 637 560.449219 L 637.445312 560.21875 C 642.503906 557.597656 648.730469 559.570312 651.351562 564.625 L 675.816406 611.78125 C 678.4375 616.835938 676.460938 623.054688 671.402344 625.675781 L 670.957031 625.90625 C 665.898438 628.523438 659.671875 626.550781 657.050781 621.496094 L 632.589844 574.339844 C 629.96875 569.289062 631.941406 563.066406 637 560.449219 Z M 637 560.449219 " fill-opacity="1" fill-rule="nonzero"/><path fill="#040404" d="M 750.027344 628.28125 C 836.703125 628.210938 903.128906 700.890625 899.90625 785.859375 C 899.703125 791.375 895.34375 795.832031 889.839844 796.144531 L 889.152344 796.191406 C 883.679688 796.507812 878.984375 792.34375 878.664062 786.886719 C 878.660156 786.796875 878.65625 786.703125 878.652344 786.617188 C 878.332031 776.699219 879.019531 767.691406 877.441406 759.121094 C 869.238281 714.785156 845.417969 682.636719 805.980469 662.675781 C 788.398438 653.777344 769.753906 649.34375 750.050781 649.375 C 730.335938 649.390625 711.699219 653.863281 694.144531 662.792969 C 654.738281 682.828125 630.980469 715.019531 622.863281 759.371094 C 621.285156 767.941406 621.992188 776.945312 621.695312 786.863281 C 621.542969 792.328125 616.972656 796.628906 611.492188 796.476562 C 611.402344 796.472656 611.3125 796.46875 611.21875 796.464844 L 610.53125 796.421875 C 605.03125 796.117188 600.660156 791.671875 600.445312 786.160156 C 597.0625 701.183594 663.332031 628.371094 750.027344 628.28125 Z M 750.027344 628.28125 " fill-opacity="1" fill-rule="nonzero"/><path fill="#040404" d="M 563.445312 633.585938 L 606.433594 664.675781 C 611.183594 668.109375 612.246094 674.742188 608.808594 679.484375 L 608.484375 679.929688 C 605.050781 684.675781 598.414062 685.734375 593.664062 682.300781 L 550.675781 651.210938 C 545.925781 647.777344 544.867188 641.148438 548.300781 636.402344 L 548.625 635.957031 C 552.0625 631.214844 558.699219 630.152344 563.445312 633.585938 Z M 563.445312 633.585938 " fill-opacity="1" fill-rule="nonzero"/><path fill="#040404" d="M 893.027344 665.160156 L 936.542969 634.492188 C 941.21875 631.195312 947.6875 632.3125 950.984375 636.984375 L 951.273438 637.398438 C 954.574219 642.070312 953.457031 648.53125 948.777344 651.824219 L 905.265625 682.492188 C 900.585938 685.792969 894.121094 684.671875 890.824219 680 L 890.53125 679.589844 C 887.234375 674.917969 888.351562 668.460938 893.027344 665.160156 Z M 893.027344 665.160156 " fill-opacity="1" fill-rule="nonzero"/><path fill="#040404" d="M 930.976562 743.585938 L 982.28125 738.46875 C 987.9375 737.902344 992.980469 742.027344 993.546875 747.679688 L 993.621094 748.410156 C 994.183594 754.058594 990.058594 759.097656 984.398438 759.664062 L 933.09375 764.78125 C 927.4375 765.34375 922.394531 761.222656 921.828125 755.570312 L 921.753906 754.839844 C 921.191406 749.1875 925.320312 744.148438 930.976562 743.585938 Z M 930.976562 743.585938 " fill-opacity="1" fill-rule="nonzero"/><path fill="#040404" d="M 519.265625 738.800781 L 570.058594 743.511719 C 575.730469 744.039062 579.902344 749.058594 579.375 754.726562 L 579.300781 755.546875 C 578.773438 761.210938 573.75 765.382812 568.078125 764.855469 L 517.285156 760.144531 C 511.613281 759.621094 507.4375 754.597656 507.964844 748.933594 L 508.042969 748.113281 C 508.566406 742.445312 513.589844 738.277344 519.265625 738.800781 Z M 519.265625 738.800781 " fill-opacity="1" fill-rule="nonzero"/><g clip-path="url(#4e73da19a3)"><path fill="#040404" d="M 497.988281 821.007812 L 1002.15625 821.007812 C 1007.703125 821.007812 1012.199219 825.5 1012.199219 831.042969 L 1012.199219 831.773438 C 1012.199219 837.316406 1007.703125 841.804688 1002.15625 841.804688 L 497.988281 841.804688 C 492.441406 841.804688 487.949219 837.316406 487.949219 831.773438 L 487.949219 831.042969 C 487.949219 825.503906 492.441406 821.007812 497.988281 821.007812 Z M 497.988281 821.007812 " fill-opacity="1" fill-rule="nonzero"/></g><path fill="#040404" d="M 592.492188 867.042969 L 908.394531 866.492188 C 914.171875 866.480469 918.859375 871.152344 918.867188 876.917969 L 918.867188 877.101562 C 918.878906 882.871094 914.203125 887.550781 908.433594 887.5625 L 592.527344 888.113281 C 586.753906 888.125 582.066406 883.453125 582.054688 877.6875 L 582.054688 877.503906 C 582.046875 871.734375 586.714844 867.050781 592.492188 867.042969 Z M 592.492188 867.042969 " fill-opacity="1" fill-rule="nonzero"/><g clip-path="url(#ff88134d5a)"><path fill="#040404" d="M 680.046875 912.625 L 818.992188 912.871094 C 824.601562 912.878906 829.140625 917.429688 829.128906 923.035156 L 829.128906 923.445312 C 829.117188 929.046875 824.5625 933.585938 818.957031 933.574219 L 680.015625 933.332031 C 674.40625 933.320312 669.863281 928.769531 669.875 923.167969 L 669.875 922.753906 C 669.882812 917.152344 674.4375 912.617188 680.046875 912.625 Z M 680.046875 912.625 " fill-opacity="1" fill-rule="nonzero"/></g><g clip-path="url(#0cfa9181e5)"><path fill="#000000" d="M 394.28125 1055.386719 C 393.457031 1055.386719 392.730469 1055.714844 392.191406 1056.261719 C 392.140625 1056.195312 392.089844 1056.144531 392.039062 1056.078125 C 391.855469 1055.847656 391.652344 1055.632812 391.464844 1055.417969 C 391.0625 1054.988281 390.640625 1054.558594 390.183594 1054.148438 C 389.746094 1053.734375 389.273438 1053.355469 388.800781 1052.992188 L 388.71875 1052.925781 C 387.589844 1053.570312 386.410156 1054.148438 385.195312 1054.640625 C 385.109375 1054.675781 385.042969 1054.707031 384.957031 1054.742188 L 384.722656 1054.824219 L 384.25 1055.003906 C 384.25 1055.003906 384.097656 1055.070312 384.015625 1055.085938 L 383.777344 1055.171875 L 383.289062 1055.335938 C 382.96875 1055.433594 382.632812 1055.535156 382.3125 1055.632812 L 381.824219 1055.765625 C 381.652344 1055.8125 381.484375 1055.847656 381.332031 1055.898438 C 378.6875 1056.542969 375.9375 1056.820312 373.207031 1056.722656 C 370.492188 1056.625 367.777344 1056.195312 365.183594 1055.449219 C 362.871094 1054.789062 360.628906 1053.914062 358.503906 1052.84375 C 356.550781 1053.933594 354.695312 1055.21875 352.976562 1056.640625 C 352.351562 1057.152344 351.761719 1057.679688 351.171875 1058.226562 C 351.761719 1058.769531 352.351562 1059.300781 352.976562 1059.8125 C 354.695312 1061.230469 356.550781 1062.519531 358.503906 1063.609375 C 360.628906 1062.535156 362.871094 1061.644531 365.183594 1061 C 367.777344 1060.257812 370.476562 1059.828125 373.207031 1059.726562 C 375.921875 1059.628906 378.667969 1059.910156 381.332031 1060.554688 C 381.503906 1060.585938 381.671875 1060.636719 381.824219 1060.6875 L 382.3125 1060.816406 C 382.632812 1060.917969 382.96875 1061.015625 383.289062 1061.117188 L 383.777344 1061.28125 L 384.015625 1061.363281 C 384.015625 1061.363281 384.183594 1061.414062 384.25 1061.445312 L 384.722656 1061.628906 L 384.957031 1061.710938 C 384.957031 1061.710938 385.109375 1061.777344 385.195312 1061.808594 C 386.410156 1062.304688 387.589844 1062.867188 388.71875 1063.527344 C 388.75 1063.511719 388.769531 1063.476562 388.800781 1063.460938 C 389.273438 1063.097656 389.730469 1062.71875 390.183594 1062.304688 C 390.625 1061.890625 391.0625 1061.480469 391.464844 1061.03125 C 391.667969 1060.816406 391.871094 1060.585938 392.039062 1060.371094 C 392.089844 1060.304688 392.140625 1060.257812 392.191406 1060.191406 C 392.714844 1060.71875 393.457031 1061.066406 394.28125 1061.066406 C 395.882812 1061.066406 397.164062 1059.792969 397.164062 1058.242188 C 397.164062 1056.691406 395.867188 1055.417969 394.28125 1055.417969 Z M 394.28125 1055.386719 " fill-opacity="1" fill-rule="nonzero"/></g><g clip-path="url(#f561bcac78)"><path fill="#000000" d="M 348.894531 1056.820312 C 348.472656 1056.046875 348.101562 1055.253906 347.800781 1054.445312 C 347.597656 1054.394531 347.394531 1054.34375 347.175781 1054.3125 C 345.574219 1053.980469 343.804688 1053.847656 341.898438 1053.980469 C 340.007812 1054.082031 338.003906 1054.460938 335.945312 1055.070312 C 333.550781 1055.78125 331.089844 1056.855469 328.695312 1058.226562 C 331.089844 1059.597656 333.550781 1060.652344 335.945312 1061.378906 C 338.003906 1061.992188 340.007812 1062.355469 341.898438 1062.46875 C 342.84375 1062.535156 343.753906 1062.519531 344.644531 1062.46875 C 345.085938 1062.4375 345.523438 1062.402344 345.945312 1062.335938 C 346.148438 1062.304688 346.367188 1062.289062 346.566406 1062.253906 C 346.769531 1062.222656 346.972656 1062.171875 347.175781 1062.140625 C 347.394531 1062.089844 347.597656 1062.058594 347.800781 1062.007812 C 348.101562 1061.199219 348.472656 1060.40625 348.894531 1059.628906 C 349.097656 1059.25 349.316406 1058.886719 349.550781 1058.539062 C 349.621094 1058.441406 349.6875 1058.339844 349.753906 1058.242188 C 349.6875 1058.144531 349.621094 1058.042969 349.550781 1057.945312 C 349.316406 1057.582031 349.097656 1057.21875 348.894531 1056.839844 Z M 348.894531 1056.820312 " fill-opacity="1" fill-rule="nonzero"/></g><g clip-path="url(#eb8bf5b1ea)"><path fill="#000000" d="M 1141.871094 1052.84375 C 1139.746094 1053.914062 1137.503906 1054.808594 1135.195312 1055.449219 C 1132.597656 1056.195312 1129.902344 1056.625 1127.167969 1056.722656 C 1124.453125 1056.820312 1121.707031 1056.542969 1119.042969 1055.898438 C 1118.875 1055.863281 1118.707031 1055.816406 1118.554688 1055.765625 L 1118.066406 1055.632812 C 1117.746094 1055.535156 1117.40625 1055.433594 1117.085938 1055.335938 L 1116.597656 1055.171875 L 1116.363281 1055.085938 C 1116.363281 1055.085938 1116.191406 1055.039062 1116.125 1055.003906 L 1115.652344 1054.824219 L 1115.417969 1054.742188 C 1115.417969 1054.742188 1115.265625 1054.675781 1115.183594 1054.640625 C 1113.96875 1054.148438 1112.789062 1053.585938 1111.65625 1052.925781 L 1111.574219 1052.992188 C 1111.101562 1053.355469 1110.644531 1053.734375 1110.191406 1054.148438 C 1109.753906 1054.558594 1109.3125 1054.972656 1108.910156 1055.417969 C 1108.707031 1055.632812 1108.503906 1055.863281 1108.335938 1056.078125 C 1108.285156 1056.144531 1108.234375 1056.195312 1108.183594 1056.261719 C 1107.664062 1055.730469 1106.921875 1055.386719 1106.09375 1055.386719 C 1104.492188 1055.386719 1103.210938 1056.65625 1103.210938 1058.210938 C 1103.210938 1059.761719 1104.507812 1061.03125 1106.09375 1061.03125 C 1106.921875 1061.03125 1107.644531 1060.703125 1108.183594 1060.15625 C 1108.234375 1060.222656 1108.285156 1060.273438 1108.335938 1060.339844 C 1108.523438 1060.570312 1108.722656 1060.785156 1108.910156 1061 C 1109.3125 1061.429688 1109.734375 1061.859375 1110.191406 1062.269531 C 1110.628906 1062.683594 1111.101562 1063.0625 1111.574219 1063.425781 C 1111.605469 1063.445312 1111.625 1063.476562 1111.65625 1063.492188 C 1112.789062 1062.847656 1113.96875 1062.269531 1115.183594 1061.777344 C 1115.265625 1061.742188 1115.332031 1061.710938 1115.417969 1061.675781 L 1115.652344 1061.59375 L 1116.125 1061.414062 C 1116.125 1061.414062 1116.277344 1061.347656 1116.363281 1061.332031 L 1116.597656 1061.246094 L 1117.085938 1061.082031 C 1117.40625 1060.984375 1117.746094 1060.882812 1118.066406 1060.785156 L 1118.554688 1060.652344 C 1118.722656 1060.605469 1118.890625 1060.570312 1119.042969 1060.519531 C 1121.691406 1059.875 1124.4375 1059.597656 1127.167969 1059.695312 C 1129.882812 1059.792969 1132.597656 1060.222656 1135.195312 1060.96875 C 1137.503906 1061.628906 1139.746094 1062.503906 1141.871094 1063.574219 C 1143.828125 1062.484375 1145.679688 1061.214844 1147.402344 1059.777344 C 1148.023438 1059.265625 1148.613281 1058.738281 1149.207031 1058.191406 C 1148.613281 1057.648438 1148.023438 1057.117188 1147.402344 1056.605469 C 1145.679688 1055.1875 1143.828125 1053.898438 1141.871094 1052.808594 Z M 1141.871094 1052.84375 " fill-opacity="1" fill-rule="nonzero"/></g><g clip-path="url(#0115225b18)"><path fill="#000000" d="M 1164.429688 1055.070312 C 1162.371094 1054.460938 1160.367188 1054.097656 1158.476562 1053.980469 C 1156.589844 1053.847656 1154.820312 1053.980469 1153.199219 1054.3125 C 1153 1054.34375 1152.78125 1054.394531 1152.578125 1054.445312 C 1152.273438 1055.253906 1151.902344 1056.046875 1151.480469 1056.820312 C 1151.277344 1057.203125 1151.042969 1057.566406 1150.824219 1057.929688 C 1150.757812 1058.027344 1150.6875 1058.125 1150.621094 1058.226562 C 1150.6875 1058.324219 1150.757812 1058.421875 1150.824219 1058.523438 C 1151.058594 1058.886719 1151.277344 1059.25 1151.480469 1059.613281 C 1151.902344 1060.390625 1152.273438 1061.179688 1152.578125 1061.992188 C 1152.78125 1062.039062 1153 1062.089844 1153.199219 1062.121094 C 1153.402344 1062.15625 1153.605469 1062.207031 1153.808594 1062.238281 C 1154.011719 1062.269531 1154.230469 1062.289062 1154.433594 1062.320312 C 1154.851562 1062.386719 1155.292969 1062.402344 1155.730469 1062.453125 C 1156.625 1062.503906 1157.535156 1062.519531 1158.476562 1062.453125 C 1160.367188 1062.335938 1162.371094 1061.972656 1164.429688 1061.363281 C 1166.824219 1060.652344 1169.285156 1059.578125 1171.679688 1058.210938 C 1169.285156 1056.839844 1166.824219 1055.765625 1164.429688 1055.054688 Z M 1164.429688 1055.070312 " fill-opacity="1" fill-rule="nonzero"/></g><path fill="#000000" d="M 1098.390625 1055.550781 C 1097.277344 1055.550781 1096.316406 1056.210938 1095.894531 1057.152344 L 1087.617188 1057.152344 C 1087.226562 1056.457031 1086.46875 1055.980469 1085.59375 1055.980469 C 1084.714844 1055.980469 1083.957031 1056.457031 1083.570312 1057.152344 L 416.773438 1057.152344 C 416.386719 1056.457031 415.625 1055.980469 414.75 1055.980469 C 413.875 1055.980469 413.113281 1056.457031 412.726562 1057.152344 L 404.449219 1057.152344 C 404.027344 1056.210938 403.066406 1055.550781 401.953125 1055.550781 C 400.453125 1055.550781 399.222656 1056.738281 399.222656 1058.226562 C 399.222656 1059.710938 400.4375 1060.902344 401.953125 1060.902344 C 403.066406 1060.902344 404.027344 1060.238281 404.449219 1059.300781 L 412.726562 1059.300781 C 413.113281 1059.992188 413.875 1060.472656 414.75 1060.472656 C 415.625 1060.472656 416.386719 1059.992188 416.773438 1059.300781 L 1083.585938 1059.300781 C 1083.972656 1059.992188 1084.734375 1060.472656 1085.609375 1060.472656 C 1086.484375 1060.472656 1087.246094 1059.992188 1087.632812 1059.300781 L 1095.910156 1059.300781 C 1096.332031 1060.238281 1097.292969 1060.902344 1098.40625 1060.902344 C 1099.90625 1060.902344 1101.136719 1059.710938 1101.136719 1058.226562 C 1101.136719 1056.738281 1099.921875 1055.550781 1098.40625 1055.550781 Z M 1098.390625 1055.550781 " fill-opacity="1" fill-rule="nonzero"/><g transform="matrix(1, 0, 0, 1, 448, 1076)"><g clip-path="url(#915b0678e2)"><g fill="#040404" fill-opacity="1"><g transform="translate(1.19945, 47.863838)"><g><path d="M 21.859375 0 L 4.328125 0 L 4.328125 -31.46875 L 21.859375 -31.46875 L 21.859375 -28.21875 L 7.984375 -28.21875 L 7.984375 -18.078125 L 21.03125 -18.078125 L 21.03125 -14.84375 L 7.984375 -14.84375 L 7.984375 -3.265625 L 21.859375 -3.265625 Z M 21.859375 0 "/></g></g></g><g fill="#040404" fill-opacity="1"><g transform="translate(25.709811, 47.863838)"><g><path d="M 25.265625 0 L 21.109375 0 L 12.65625 -13.84375 L 4.046875 0 L 0.171875 0 L 10.625 -16.4375 L 0.875 -31.46875 L 4.921875 -31.46875 L 12.734375 -19 L 20.625 -31.46875 L 24.515625 -31.46875 L 14.765625 -16.578125 Z M 25.265625 0 "/></g></g></g><g fill="#040404" fill-opacity="1"><g transform="translate(51.145493, 47.863838)"><g><path d="M 24.28125 -22.296875 C 24.28125 -19.109375 23.191406 -16.65625 21.015625 -14.9375 C 18.835938 -13.226562 15.726562 -12.375 11.6875 -12.375 L 7.984375 -12.375 L 7.984375 0 L 4.328125 0 L 4.328125 -31.46875 L 12.484375 -31.46875 C 20.347656 -31.46875 24.28125 -28.410156 24.28125 -22.296875 Z M 7.984375 -15.515625 L 11.28125 -15.515625 C 14.519531 -15.515625 16.863281 -16.035156 18.3125 -17.078125 C 19.757812 -18.128906 20.484375 -19.8125 20.484375 -22.125 C 20.484375 -24.207031 19.800781 -25.753906 18.4375 -26.765625 C 17.082031 -27.785156 14.960938 -28.296875 12.078125 -28.296875 L 7.984375 -28.296875 Z M 7.984375 -15.515625 "/></g></g></g><g fill="#040404" fill-opacity="1"><g transform="translate(77.678658, 47.863838)"><g><path d="M 4.328125 0 L 4.328125 -31.46875 L 7.984375 -31.46875 L 7.984375 -3.3125 L 21.859375 -3.3125 L 21.859375 0 Z M 4.328125 0 "/></g></g></g><g fill="#040404" fill-opacity="1"><g transform="translate(100.55356, 47.863838)"><g><path d="M 31.640625 -15.78125 C 31.640625 -10.738281 30.363281 -6.773438 27.8125 -3.890625 C 25.269531 -1.003906 21.734375 0.4375 17.203125 0.4375 C 12.566406 0.4375 8.988281 -0.976562 6.46875 -3.8125 C 3.945312 -6.65625 2.6875 -10.65625 2.6875 -15.8125 C 2.6875 -20.9375 3.945312 -24.910156 6.46875 -27.734375 C 9 -30.554688 12.585938 -31.96875 17.234375 -31.96875 C 21.753906 -31.96875 25.285156 -30.53125 27.828125 -27.65625 C 30.367188 -24.789062 31.640625 -20.832031 31.640625 -15.78125 Z M 6.5625 -15.78125 C 6.5625 -11.519531 7.46875 -8.285156 9.28125 -6.078125 C 11.101562 -3.878906 13.742188 -2.78125 17.203125 -2.78125 C 20.679688 -2.78125 23.3125 -3.875 25.09375 -6.0625 C 26.875 -8.257812 27.765625 -11.5 27.765625 -15.78125 C 27.765625 -20.007812 26.878906 -23.21875 25.109375 -25.40625 C 23.335938 -27.59375 20.710938 -28.6875 17.234375 -28.6875 C 13.753906 -28.6875 11.101562 -27.582031 9.28125 -25.375 C 7.46875 -23.175781 6.5625 -19.976562 6.5625 -15.78125 Z M 6.5625 -15.78125 "/></g></g></g><g fill="#040404" fill-opacity="1"><g transform="translate(134.876672, 47.863838)"><g><path d="M 7.984375 -13.078125 L 7.984375 0 L 4.328125 0 L 4.328125 -31.46875 L 12.953125 -31.46875 C 16.816406 -31.46875 19.671875 -30.726562 21.515625 -29.25 C 23.359375 -27.769531 24.28125 -25.546875 24.28125 -22.578125 C 24.28125 -18.410156 22.171875 -15.597656 17.953125 -14.140625 L 26.5 0 L 22.171875 0 L 14.546875 -13.078125 Z M 7.984375 -16.234375 L 13 -16.234375 C 15.582031 -16.234375 17.472656 -16.742188 18.671875 -17.765625 C 19.878906 -18.796875 20.484375 -20.335938 20.484375 -22.390625 C 20.484375 -24.460938 19.867188 -25.957031 18.640625 -26.875 C 17.421875 -27.800781 15.453125 -28.265625 12.734375 -28.265625 L 7.984375 -28.265625 Z M 7.984375 -16.234375 "/></g></g></g><g fill="#040404" fill-opacity="1"><g transform="translate(162.119958, 47.863838)"><g><path d="M 21.859375 0 L 4.328125 0 L 4.328125 -31.46875 L 21.859375 -31.46875 L 21.859375 -28.21875 L 7.984375 -28.21875 L 7.984375 -18.078125 L 21.03125 -18.078125 L 21.03125 -14.84375 L 7.984375 -14.84375 L 7.984375 -3.265625 L 21.859375 -3.265625 Z M 21.859375 0 "/></g></g></g><g fill="#040404" fill-opacity="1"><g transform="translate(186.630319, 47.863838)"><g/></g></g><g fill="#040404" fill-opacity="1"><g transform="translate(198.078543, 47.863838)"><g><path d="M 3.53125 -16.09375 C 3.53125 -17.832031 3.9375 -19.15625 4.75 -20.0625 C 5.5625 -20.96875 6.738281 -21.421875 8.28125 -21.421875 C 9.789062 -21.421875 10.960938 -20.972656 11.796875 -20.078125 C 12.628906 -19.191406 13.046875 -17.863281 13.046875 -16.09375 C 13.046875 -14.382812 12.628906 -13.066406 11.796875 -12.140625 C 10.972656 -11.222656 9.800781 -10.765625 8.28125 -10.765625 C 6.75 -10.765625 5.570312 -11.234375 4.75 -12.171875 C 3.9375 -13.109375 3.53125 -14.414062 3.53125 -16.09375 Z M 3.53125 -16.09375 "/></g></g></g><g fill="#040404" fill-opacity="1"><g transform="translate(214.648311, 47.863838)"><g/></g></g><g fill="#040404" fill-opacity="1"><g transform="translate(226.09652, 47.863838)"><g><path d="M 29.4375 -16.03125 C 29.4375 -10.84375 28.023438 -6.875 25.203125 -4.125 C 22.390625 -1.375 18.335938 0 13.046875 0 L 4.328125 0 L 4.328125 -31.46875 L 13.96875 -31.46875 C 18.863281 -31.46875 22.664062 -30.109375 25.375 -27.390625 C 28.082031 -24.679688 29.4375 -20.894531 29.4375 -16.03125 Z M 25.5625 -15.90625 C 25.5625 -20.007812 24.53125 -23.097656 22.46875 -25.171875 C 20.414062 -27.253906 17.359375 -28.296875 13.296875 -28.296875 L 7.984375 -28.296875 L 7.984375 -3.15625 L 12.4375 -3.15625 C 16.800781 -3.15625 20.078125 -4.226562 22.265625 -6.375 C 24.460938 -8.519531 25.5625 -11.695312 25.5625 -15.90625 Z M 25.5625 -15.90625 "/></g></g></g><g fill="#040404" fill-opacity="1"><g transform="translate(258.224682, 47.863838)"><g><path d="M 4.328125 0 L 4.328125 -31.46875 L 7.984375 -31.46875 L 7.984375 0 Z M 4.328125 0 "/></g></g></g><g fill="#040404" fill-opacity="1"><g transform="translate(270.512143, 47.863838)"><g><path d="M 22.078125 -8.375 C 22.078125 -5.601562 21.070312 -3.441406 19.0625 -1.890625 C 17.0625 -0.335938 14.335938 0.4375 10.890625 0.4375 C 7.160156 0.4375 4.289062 -0.046875 2.28125 -1.015625 L 2.28125 -4.546875 C 3.570312 -3.992188 4.976562 -3.5625 6.5 -3.25 C 8.019531 -2.9375 9.523438 -2.78125 11.015625 -2.78125 C 13.453125 -2.78125 15.285156 -3.238281 16.515625 -4.15625 C 17.753906 -5.082031 18.375 -6.375 18.375 -8.03125 C 18.375 -9.113281 18.15625 -10.003906 17.71875 -10.703125 C 17.28125 -11.398438 16.546875 -12.039062 15.515625 -12.625 C 14.492188 -13.21875 12.9375 -13.890625 10.84375 -14.640625 C 7.914062 -15.679688 5.820312 -16.921875 4.5625 -18.359375 C 3.3125 -19.796875 2.6875 -21.664062 2.6875 -23.96875 C 2.6875 -26.394531 3.597656 -28.328125 5.421875 -29.765625 C 7.242188 -31.203125 9.65625 -31.921875 12.65625 -31.921875 C 15.78125 -31.921875 18.65625 -31.347656 21.28125 -30.203125 L 20.140625 -27.015625 C 17.546875 -28.097656 15.019531 -28.640625 12.5625 -28.640625 C 10.625 -28.640625 9.109375 -28.222656 8.015625 -27.390625 C 6.929688 -26.566406 6.390625 -25.414062 6.390625 -23.9375 C 6.390625 -22.84375 6.585938 -21.945312 6.984375 -21.25 C 7.390625 -20.550781 8.066406 -19.910156 9.015625 -19.328125 C 9.972656 -18.753906 11.4375 -18.113281 13.40625 -17.40625 C 16.707031 -16.226562 18.976562 -14.960938 20.21875 -13.609375 C 21.457031 -12.265625 22.078125 -10.519531 22.078125 -8.375 Z M 22.078125 -8.375 "/></g></g></g><g fill="#040404" fill-opacity="1"><g transform="translate(294.699697, 47.863838)"><g><path d="M 17.796875 -28.640625 C 14.335938 -28.640625 11.609375 -27.488281 9.609375 -25.1875 C 7.609375 -22.882812 6.609375 -19.734375 6.609375 -15.734375 C 6.609375 -11.617188 7.570312 -8.4375 9.5 -6.1875 C 11.425781 -3.9375 14.175781 -2.8125 17.75 -2.8125 C 19.945312 -2.8125 22.453125 -3.207031 25.265625 -4 L 25.265625 -0.796875 C 23.085938 0.0234375 20.398438 0.4375 17.203125 0.4375 C 12.566406 0.4375 8.988281 -0.96875 6.46875 -3.78125 C 3.945312 -6.59375 2.6875 -10.59375 2.6875 -15.78125 C 2.6875 -19.019531 3.289062 -21.859375 4.5 -24.296875 C 5.71875 -26.734375 7.46875 -28.613281 9.75 -29.9375 C 12.039062 -31.257812 14.738281 -31.921875 17.84375 -31.921875 C 21.144531 -31.921875 24.03125 -31.316406 26.5 -30.109375 L 24.9375 -26.96875 C 22.5625 -28.082031 20.179688 -28.640625 17.796875 -28.640625 Z M 17.796875 -28.640625 "/></g></g></g><g fill="#040404" fill-opacity="1"><g transform="translate(322.502505, 47.863838)"><g><path d="M 31.640625 -15.78125 C 31.640625 -10.738281 30.363281 -6.773438 27.8125 -3.890625 C 25.269531 -1.003906 21.734375 0.4375 17.203125 0.4375 C 12.566406 0.4375 8.988281 -0.976562 6.46875 -3.8125 C 3.945312 -6.65625 2.6875 -10.65625 2.6875 -15.8125 C 2.6875 -20.9375 3.945312 -24.910156 6.46875 -27.734375 C 9 -30.554688 12.585938 -31.96875 17.234375 -31.96875 C 21.753906 -31.96875 25.285156 -30.53125 27.828125 -27.65625 C 30.367188 -24.789062 31.640625 -20.832031 31.640625 -15.78125 Z M 6.5625 -15.78125 C 6.5625 -11.519531 7.46875 -8.285156 9.28125 -6.078125 C 11.101562 -3.878906 13.742188 -2.78125 17.203125 -2.78125 C 20.679688 -2.78125 23.3125 -3.875 25.09375 -6.0625 C 26.875 -8.257812 27.765625 -11.5 27.765625 -15.78125 C 27.765625 -20.007812 26.878906 -23.21875 25.109375 -25.40625 C 23.335938 -27.59375 20.710938 -28.6875 17.234375 -28.6875 C 13.753906 -28.6875 11.101562 -27.582031 9.28125 -25.375 C 7.46875 -23.175781 6.5625 -19.976562 6.5625 -15.78125 Z M 6.5625 -15.78125 "/></g></g></g><g fill="#040404" fill-opacity="1"><g transform="translate(356.825617, 47.863838)"><g><path d="M 22.296875 -31.46875 L 26.234375 -31.46875 L 14.890625 0 L 11.28125 0 L 0 -31.46875 L 3.875 -31.46875 L 11.109375 -11.109375 C 11.941406 -8.765625 12.597656 -6.488281 13.078125 -4.28125 C 13.597656 -6.601562 14.273438 -8.921875 15.109375 -11.234375 Z M 22.296875 -31.46875 "/></g></g></g><g fill="#040404" fill-opacity="1"><g transform="translate(383.057513, 47.863838)"><g><path d="M 21.859375 0 L 4.328125 0 L 4.328125 -31.46875 L 21.859375 -31.46875 L 21.859375 -28.21875 L 7.984375 -28.21875 L 7.984375 -18.078125 L 21.03125 -18.078125 L 21.03125 -14.84375 L 7.984375 -14.84375 L 7.984375 -3.265625 L 21.859375 -3.265625 Z M 21.859375 0 "/></g></g></g><g fill="#040404" fill-opacity="1"><g transform="translate(407.567874, 47.863838)"><g><path d="M 7.984375 -13.078125 L 7.984375 0 L 4.328125 0 L 4.328125 -31.46875 L 12.953125 -31.46875 C 16.816406 -31.46875 19.671875 -30.726562 21.515625 -29.25 C 23.359375 -27.769531 24.28125 -25.546875 24.28125 -22.578125 C 24.28125 -18.410156 22.171875 -15.597656 17.953125 -14.140625 L 26.5 0 L 22.171875 0 L 14.546875 -13.078125 Z M 7.984375 -16.234375 L 13 -16.234375 C 15.582031 -16.234375 17.472656 -16.742188 18.671875 -17.765625 C 19.878906 -18.796875 20.484375 -20.335938 20.484375 -22.390625 C 20.484375 -24.460938 19.867188 -25.957031 18.640625 -26.875 C 17.421875 -27.800781 15.453125 -28.265625 12.734375 -28.265625 L 7.984375 -28.265625 Z M 7.984375 -16.234375 "/></g></g></g><g fill="#040404" fill-opacity="1"><g transform="translate(434.81116, 47.863838)"><g/></g></g><g fill="#040404" fill-opacity="1"><g transform="translate(446.259384, 47.863838)"><g><path d="M 3.53125 -16.09375 C 3.53125 -17.832031 3.9375 -19.15625 4.75 -20.0625 C 5.5625 -20.96875 6.738281 -21.421875 8.28125 -21.421875 C 9.789062 -21.421875 10.960938 -20.972656 11.796875 -20.078125 C 12.628906 -19.191406 13.046875 -17.863281 13.046875 -16.09375 C 13.046875 -14.382812 12.628906 -13.066406 11.796875 -12.140625 C 10.972656 -11.222656 9.800781 -10.765625 8.28125 -10.765625 C 6.75 -10.765625 5.570312 -11.234375 4.75 -12.171875 C 3.9375 -13.109375 3.53125 -14.414062 3.53125 -16.09375 Z M 3.53125 -16.09375 "/></g></g></g><g fill="#040404" fill-opacity="1"><g transform="translate(462.829153, 47.863838)"><g/></g></g><g fill="#040404" fill-opacity="1"><g transform="translate(474.277346, 47.863838)"><g><path d="M 21.859375 0 L 4.328125 0 L 4.328125 -31.46875 L 21.859375 -31.46875 L 21.859375 -28.21875 L 7.984375 -28.21875 L 7.984375 -18.078125 L 21.03125 -18.078125 L 21.03125 -14.84375 L 7.984375 -14.84375 L 7.984375 -3.265625 L 21.859375 -3.265625 Z M 21.859375 0 "/></g></g></g><g fill="#040404" fill-opacity="1"><g transform="translate(498.787706, 47.863838)"><g><path d="M 28.90625 0 L 24.734375 0 L 7.53125 -26.40625 L 7.359375 -26.40625 C 7.585938 -23.3125 7.703125 -20.472656 7.703125 -17.890625 L 7.703125 0 L 4.328125 0 L 4.328125 -31.46875 L 8.453125 -31.46875 L 25.609375 -5.171875 L 25.78125 -5.171875 C 25.75 -5.554688 25.679688 -6.796875 25.578125 -8.890625 C 25.484375 -10.992188 25.453125 -12.5 25.484375 -13.40625 L 25.484375 -31.46875 L 28.90625 -31.46875 Z M 28.90625 0 "/></g></g></g><g fill="#040404" fill-opacity="1"><g transform="translate(532.013335, 47.863838)"><g><path d="M -0.265625 8.28125 C -1.609375 8.28125 -2.664062 8.085938 -3.4375 7.703125 L -3.4375 4.578125 C -2.425781 4.867188 -1.367188 5.015625 -0.265625 5.015625 C 1.160156 5.015625 2.242188 4.582031 2.984375 3.71875 C 3.722656 2.863281 4.09375 1.625 4.09375 0 L 4.09375 -31.46875 L 7.75 -31.46875 L 7.75 -0.296875 C 7.75 2.421875 7.054688 4.53125 5.671875 6.03125 C 4.296875 7.53125 2.316406 8.28125 -0.265625 8.28125 Z M -0.265625 8.28125 "/></g></g></g><g fill="#040404" fill-opacity="1"><g transform="translate(543.784336, 47.863838)"><g><path d="M 31.640625 -15.78125 C 31.640625 -10.738281 30.363281 -6.773438 27.8125 -3.890625 C 25.269531 -1.003906 21.734375 0.4375 17.203125 0.4375 C 12.566406 0.4375 8.988281 -0.976562 6.46875 -3.8125 C 3.945312 -6.65625 2.6875 -10.65625 2.6875 -15.8125 C 2.6875 -20.9375 3.945312 -24.910156 6.46875 -27.734375 C 9 -30.554688 12.585938 -31.96875 17.234375 -31.96875 C 21.753906 -31.96875 25.285156 -30.53125 27.828125 -27.65625 C 30.367188 -24.789062 31.640625 -20.832031 31.640625 -15.78125 Z M 6.5625 -15.78125 C 6.5625 -11.519531 7.46875 -8.285156 9.28125 -6.078125 C 11.101562 -3.878906 13.742188 -2.78125 17.203125 -2.78125 C 20.679688 -2.78125 23.3125 -3.875 25.09375 -6.0625 C 26.875 -8.257812 27.765625 -11.5 27.765625 -15.78125 C 27.765625 -20.007812 26.878906 -23.21875 25.109375 -25.40625 C 23.335938 -27.59375 20.710938 -28.6875 17.234375 -28.6875 C 13.753906 -28.6875 11.101562 -27.582031 9.28125 -25.375 C 7.46875 -23.175781 6.5625 -19.976562 6.5625 -15.78125 Z M 6.5625 -15.78125 "/></g></g></g><g fill="#040404" fill-opacity="1"><g transform="translate(578.107479, 47.863838)"><g><path d="M 12.328125 -15.734375 L 20.71875 -31.46875 L 24.6875 -31.46875 L 14.1875 -12.203125 L 14.1875 0 L 10.484375 0 L 10.484375 -12.03125 L 0 -31.46875 L 4 -31.46875 Z M 12.328125 -15.734375 "/></g></g></g></g></g></svg>